<?xml version="1.0" encoding="utf-8"?>
<!-- Generator: Adobe Illustrator 28.3.0, SVG Export Plug-In . SVG Version: 6.00 Build 0)  -->
<svg version="1.1" id="Layer_1" xmlns="http://www.w3.org/2000/svg" xmlns:xlink="http://www.w3.org/1999/xlink" x="0px" y="0px"
	 viewBox="0 0 360 360" style="enable-background:new 0 0 360 360;" xml:space="preserve">
<style type="text/css">
	.st0{fill:#070707;}
	.st1{fill:#FFFFFF;}
	.st2{fill-rule:evenodd;clip-rule:evenodd;fill:#070707;}
	.st3{fill-rule:evenodd;clip-rule:evenodd;fill:#FFFFFF;}
	.st4{clip-path:url(#SVGID_00000165932028492788757610000000641071103680793485_);fill:#070707;}
</style>
<g>
	<g>
		<g>
			<g>
				<path class="st0" d="M134.3,141.11c-4.77-4.44-11.6-7.63-19.56-9.32c1.43,0.58,2.59,1.7,2.42,2.47c1.57,1.16,2.1,2.04,2.08,2.77
					c1.13,1.25,1.68,2.24,1.74,3.02c1.14,1.47,1.56,2.57,1.49,3.4c1,1.51,1.27,2.6,1.15,3.46c0.6,1.36,0.83,2.3,0.73,2.87
					c0.51,1.08,0.65,1.98,0.55,2.77c0.37,0.44,0.56,2.46,0.52,3.41L134.3,141.11z"/>
				<g>
					<path class="st1" d="M132.82,141.7c-0.78,0.21-2.32-1.04-3.43-1.78c-3.55-2.35-5.64-3.49-10.1-5.4
						C124.12,136.05,129.64,139.02,132.82,141.7z"/>
					<path class="st1" d="M131.89,143.03c-0.6,0.11-2.36-1.1-3.65-1.91c-2.45-1.54-3.82-2.42-7.03-3.89
						C124.54,138.24,129.33,141.01,131.89,143.03z"/>
					<path class="st1" d="M130.96,144.19c-0.34,0.07-2.14-0.97-2.79-1.38c-2.09-1.3-3.04-2.01-6.02-3.43
						C125.2,140.43,129.16,142.67,130.96,144.19z"/>
				</g>
			</g>
			<g>
				<path class="st0" d="M189.59,269.13c8.92-0.89,14.3-28.19,34.61-39.83c-3.61,3.57-5.04,6.04-4.75,7.64
					c-2.59,3.18-3.45,5.11-3.1,6.18c-1.89,2.77-2.49,4.8-2.04,6.24c-1.89,3.28-2.25,5.52-1.52,7.01c-1.52,3.09-1.74,5.25-0.94,6.69
					c-1.5,2.81-1.63,4.88-0.99,6.55c-0.68,3.07-0.75,5.64,0.11,7.47c-1.08,3.57-1.16,6.05-0.37,7.56c-0.55,3.46-0.36,5.75,0.34,7.23
					c-0.19,3.08,0.11,5.56,1.12,7.18c-0.3,2.01,0.45,4.18,2.14,6.49c-0.32,0.9,0.45,2.7,2.4,5.45c-0.11,1.1,1.3,2.83,2.92,4.21
					c-0.34,1.21,2.02,3.87,4.64,6.66c-15.92-9.8-27.73-35.98-37.46-45.04L189.59,269.13z"/>
				<g>
					<g>
						<path class="st1" d="M217.32,236.71c-6.49,6.11-11.01,13.83-14.85,20.36c-2.34,3.99-4.42,7.53-6.58,10.04
							c2.42-1.68,4.82-5.58,7.24-9.66C207.76,249.64,212.34,242.55,217.32,236.71z"/>
						<path class="st1" d="M197.98,267.82c4.17-4.48,10.91-17.15,15.87-23.42C209.34,251.71,203.72,263.14,197.98,267.82z"/>
						<path class="st1" d="M199.88,268.73c3.1-3.66,7.04-9.35,12.01-17.9C208.04,259.3,204.01,265.15,199.88,268.73z"/>
					</g>
					<g>
						<path class="st1" d="M193.01,281.28c2.35,3.07,4.8,6.72,7.46,10.67c4.18,6.21,8.69,12.91,13.62,18.56
							c-4.43-6.31-8.75-12.52-12.93-19.04C198.69,287.63,195.49,283.43,193.01,281.28z"/>
						<path class="st1" d="M195.88,281.62c4.63,5.38,10.5,16.08,15.59,22.49C206.71,296.6,201.81,286.58,195.88,281.62z"/>
						<path class="st1" d="M198.14,281.58c3.62,4.01,7.57,10.01,11.68,16.82C206.57,291.3,202.82,285.35,198.14,281.58z"/>
					</g>
				</g>
			</g>
			<g>
				<path class="st0" d="M192.69,106.39c-6.54-11.2-17.06-21.04-31.62-29.48c2.39,2.31,3.16,5.17,2.25,6.18
					c1.6,2.79,1.74,4.44,0.92,5.33c1.02,2.5,0.82,4.37-0.07,5.88c0.38,1.95,0.09,3.41-0.78,4.43c0.1,1.88-0.48,3.19-1.33,4.28
					c-0.04,1.84-0.59,3.09-1.63,3.78c-0.11,1.99-1.02,3.28-2.31,4.23c-0.33,1.66-1.13,2.92-2.44,3.74
					c-0.26,1.45-0.99,2.53-2.33,3.14c-0.67,1.47-1.81,2.39-2.86,2.99c-0.69,1.24-1.93,2.67-3.13,3.49c0.71,0.05,1.66,0.33,2.2,0.62
					L192.69,106.39z"/>
				<g>
					<path class="st1" d="M189.49,105.44c-1.73-0.21-4.17-3.37-5.94-5.41c-5.7-6.56-9.95-10.4-16.75-16.33
						C175.62,89.8,184.78,98.6,189.49,105.44z"/>
					<path class="st1" d="M185.84,106.24c-1.52-0.3-3.86-2.88-6.32-5.6c-4.69-5.18-5.99-6.43-12.53-12.1
						C174.15,93.41,181.26,100.03,185.84,106.24z"/>
					<path class="st1" d="M182.17,107.14c-0.87-0.19-2.56-1.55-3.77-3c-3.87-4.62-4.91-5.66-10.78-11.38
						C173.21,96.96,179.17,102.38,182.17,107.14z"/>
					<path class="st1" d="M178.97,108.04c-1.42-0.34-4.21-3.52-5.48-4.99c-2.93-3.36-3.24-3.43-6.37-6.54
						C171.03,99.29,176.14,104.24,178.97,108.04z"/>
					<path class="st1" d="M176.11,108.88c-1.35-0.25-3.68-2.71-4.67-3.77c-1.85-2-2.46-2.59-4.71-4.95
						C169.47,102.1,173.32,105.62,176.11,108.88z"/>
				</g>
			</g>
			<g>
				<path class="st0" d="M215.09,176.35c0.16,10.61-7.28,26.83-13.62,32.13c0.4-1.26,0.22-2.94-0.32-3.37
					c0.18-1.66-0.08-2.88-0.92-3.53c0.18-1.41-0.2-2.41-0.94-3.05c0.18-1.38-0.17-2.66-1.03-3.21c0.02-1.23-0.3-2.17-1.07-2.79
					c0.06-0.84-1.21-2.27-0.74-3.64c0.33-0.97,1.4-1.77,3.56-3.12c2.98-1.86,5.94-4.14,8-6.61L215.09,176.35z"/>
			</g>
		</g>
		<g>
			<path class="st1" d="M193.83,279.36c3.85,0.43,8.98-0.42,11.86-1.44c0.56-0.2,1.24-0.54,1.34-1.05c0.08-0.41-0.2-0.9-0.83-1.47
				c-3.6-3.24-8.81-5.88-12.39-6.28c-0.28-0.03-0.56-0.05-0.82-0.05c-0.65-0.01-1.23,0.07-1.78,0.14c-0.74,0.1-1.51,0.21-2.47,0.1
				c-1.15-0.13-2.4-0.54-3.94-1.29c-18.51-9.03-26.92-21.87-26.45-40.41c0.17-6.72,2.16-13.3,5.09-21.09
				c4.28-11.37,17.92-19.11,41.71-23.66c5.2-0.99,9.21-1.48,13.09-1.95c3.31-0.4,6.44-0.78,10.08-1.44
				c6.06-1.11,13.02-2.98,20.69-5.57l-4.28-63.2c-8.24-2.96-16.67-4.94-25.06-5.87c-5.52-0.61-11.09-0.78-16.56-0.49
				c-12.14,0.63-23.78,3.42-34.59,8.3c-10.38,4.68-19.49,11.05-27.09,18.91c-17.33,17.95-25.55,42.79-23.15,69.96
				c1.61,18.15,7.17,32.7,17.03,44.49c11.25,13.46,28.08,23.48,51.45,30.61c1.41,0.43,2.25,0.93,2.99,1.37
				c0.36,0.22,0.71,0.42,1.09,0.61C191.62,278.97,192.62,279.23,193.83,279.36z"/>
			<g>
				<path class="st0" d="M118.08,201.54c2.97,33.52,19.7,60.35,68.63,75.3c2.06,0.63,2.85,1.39,4.05,1.97
					c3.56,1.7,11.23,0.65,15-0.68c1.19-0.42,2.38-1.28,0.59-2.9c-3.77-3.39-9.54-6.33-13.35-6.39c-2.48-0.04-3.66,1.15-8.1-1.02
					c-19.8-9.66-26.76-23.12-26.33-40.2c0.17-6.66,2.09-13.07,5.08-21.02c3.64-9.68,14.5-18.35,41.54-23.52
					c9.61-1.84,15.24-1.95,23.17-3.39c5.43-0.99,12.29-2.72,20.88-5.63l-36.13-14.68c-5.92,6.87-13.49,11.94-23.38,14.49
					c-7.59,8.9-16.32,14.65-25.83,18.39c-3.1,1.21-5.36,3.97-7.25,7.25c-0.38,0.66-5.07,10.75-5.11,10.82
					c-2.19,5.05-3.92,10.04-4.32,15.49c-0.22,2.67-0.19,5.22,0.08,7.61c0.58,5.14,3.46,11.74,4.15,12.82
					c-1.12-3.3-1.84-7.01-0.85-7.12c0.37-0.04,0.56,0.49,0.87,1.5c3.9,12.98,14.53,23.05,24.53,28.67
					c-13.3-9.01-20.94-20.76-22.82-32.25c-1.34-8.21-0.19-17.79,2.49-25.99c-3.64,35.12,9.53,47.78,24.97,57.08
					c2.22,1.33,3.53,1.8,4.26,2.32c0.82,0.59,1.01,1.72,0.42,2.21c0.11-0.43,0.05-0.88-0.27-1.23c0.21,0.89-0.29,1.57-1.02,1.54
					c-0.97-0.05-2.26-0.43-3.57-0.76c-13.24-3.32-25.48-10.55-34.76-20.56c-9.76-10.53-13.31-25.15-18.2-38.65
					c-1.96-5.41-1.06-11.38-0.09-17.05c0.63-3.71,1.28-7.45,1.14-11.22c-0.07-1.81,0.21-5.6,0.19-7.36
					c-0.02-1.44,0.8-4.34,1.27-5.69c2.32-6.67,5.41-9.56,10.29-14.61c6.08-6.31,14.49-10.2,20.34-16.72
					c2.18-2.43,5.29-3.83,8.42-4.75c3.13-0.92,6.38-1.44,9.48-2.47c3.65-1.22,7.07-3.13,10.82-4c3.7-0.85,7.58-0.64,11.3,0.12
					c3.72,0.75,7.27,2.85,11.05,3.26l33.24-21.93c-14.39-5.2-28.54-7.11-41.84-6.42c-24.97,1.29-46.87,11.79-61.82,27.28
					C124.51,148.78,115.59,173.41,118.08,201.54z"/>
			</g>
			<g>
				<path class="st0" d="M151.1,206.44c-2.42,5.18-5.22,11.66-5.77,19.18c-0.5,6.06,0.73,10.6,1.85,14.32
					c-2.93-5.43-3.82-14.2-2.09-21.35C146.3,213.63,148.41,209.15,151.1,206.44z"/>
				<path class="st0" d="M186.67,173.8c-2.9,4.67-16.24,14.79-22.89,16.27C170.03,186.71,178.66,180.37,186.67,173.8z"/>
				<path class="st0" d="M152.46,247.94c3.26,5.45,8.34,11.55,14.27,16.08C158.42,258.37,152.78,251.2,152.46,247.94z"/>
			</g>
			<g>
				<g>
					<path class="st0" d="M173.3,265.4c0.59-0.16,1.27-1.15,1.38-1.67C174.82,264.5,174.01,265.5,173.3,265.4z"/>
					<path class="st0" d="M175.61,266.73c0.52-0.15,1.11-1.03,1.19-1.49C176.94,265.91,176.24,266.8,175.61,266.73z"/>
					<path class="st0" d="M177.58,268.45c0.54-0.15,1.17-1.06,1.26-1.55C178.98,267.61,178.23,268.53,177.58,268.45z"/>
					<path class="st0" d="M180.18,269.81c0.43-0.14,0.89-0.9,0.94-1.28C181.26,269.08,180.7,269.85,180.18,269.81z"/>
					<path class="st0" d="M182.52,270.63c0.32-0.15,0.72-0.79,0.8-1.1C183.37,269.95,182.89,270.61,182.52,270.63z"/>
					<path class="st0" d="M171.3,263.76c0.62-0.21,1.41-1.3,1.56-1.87C172.95,262.71,172.03,263.82,171.3,263.76z"/>
					<path class="st0" d="M169.53,261.99c0.71-0.2,1.63-1.4,1.82-2.03C171.42,260.88,170.34,262.09,169.53,261.99z"/>
					<path class="st0" d="M168.19,260.47c0.61-0.2,1.45-1.27,1.63-1.82C169.85,259.45,168.89,260.53,168.19,260.47z"/>
					<path class="st0" d="M166.65,259.03c0.55-0.18,1.29-1.13,1.45-1.63C168.14,258.11,167.27,259.08,166.65,259.03z"/>
				</g>
				<g>
					<path class="st0" d="M158.41,136.74c0.22,1.32,2.16,3.37,3.24,3.91C160,140.47,158.07,138.15,158.41,136.74z"/>
					<path class="st0" d="M157.25,141.65c0.21,1.26,2.06,3.21,3.08,3.73C158.77,145.21,156.93,143,157.25,141.65z"/>
					<path class="st0" d="M185.58,134.83c-0.45,1-0.06,3.27,0.43,4.13C184.97,138.1,184.71,135.64,185.58,134.83z"/>
					<path class="st0" d="M185.52,128.99c-0.46,0.95-0.17,3.14,0.27,3.98C184.82,132.1,184.66,129.74,185.52,128.99z"/>
					<path class="st0" d="M190.23,132.32c-0.92-0.99-0.89-3.45,0.07-4.15C189.81,129.2,189.75,131.01,190.23,132.32z"/>
					<path class="st0" d="M191.08,133.33c-0.55,0.95-0.39,3.25,0.01,4.15C190.15,136.52,190.14,134.05,191.08,133.33z"/>
					<path class="st0" d="M195.08,129.23c-0.65,0.88-0.76,3.19-0.47,4.13C193.79,132.29,194.06,129.83,195.08,129.23z"/>
					<path class="st0" d="M196.92,133.58c-0.69,1.1-0.62,3.84-0.19,4.92C195.66,137.31,195.76,134.39,196.92,133.58z"/>
					<path class="st0" d="M200.65,130.75c-0.71,0.98-0.8,3.51-0.46,4.54C199.27,134.12,199.53,131.42,200.65,130.75z"/>
					<path class="st0" d="M204.58,133.27c-0.85,1.1-1.06,4.01-0.72,5.21C202.85,137.1,203.27,134.01,204.58,133.27z"/>
					<path class="st0" d="M201.16,138.28c-0.65,1.07-0.53,3.7-0.1,4.74C200.01,141.89,200.06,139.07,201.16,138.28z"/>
					<path class="st0" d="M208.59,133.77c-0.84,0.99-1.15,3.69-0.88,4.82C206.83,137.27,207.34,134.4,208.59,133.77z"/>
					<path class="st0" d="M205.88,139.33c-0.58,0.78-0.68,2.81-0.43,3.64C204.73,142.03,204.98,139.86,205.88,139.33z"/>
					<path class="st0" d="M181.23,129.11c-0.45,1.07-0.08,3.53,0.41,4.46C180.6,132.62,180.35,129.97,181.23,129.11z"/>
					<path class="st0" d="M163.22,134.33c-0.12,1.28,1.17,3.66,2.03,4.42C163.78,138.18,162.57,135.56,163.22,134.33z"/>
					<path class="st0" d="M179.88,134.43c-0.41,1.02,0.05,3.27,0.57,4.11C179.39,137.71,179.04,135.27,179.88,134.43z"/>
					<path class="st0" d="M164.86,145.51c0.17,1.26,1.95,3.27,2.95,3.82C166.26,149.11,164.5,146.84,164.86,145.51z"/>
					<path class="st0" d="M155.31,146.31c0.2,1.21,1.98,3.09,2.97,3.59C156.77,149.74,155,147.61,155.31,146.31z"/>
					<path class="st0" d="M150.7,146.7c0.18,1.08,1.77,2.76,2.65,3.2C152.01,149.75,150.43,147.85,150.7,146.7z"/>
					<path class="st0" d="M138.35,168.69c0.59,0.97,2.74,2.03,3.76,2.15C140.76,171.15,138.52,169.88,138.35,168.69z"/>
					<path class="st0" d="M142.33,163.45c0.32,1.09,2.13,2.67,3.07,3.05C144.02,166.45,142.19,164.65,142.33,163.45z"/>
					<path class="st0" d="M129.91,173.31c0.7,0.84,2.92,1.49,3.9,1.43C132.57,175.29,130.25,174.45,129.91,173.31z"/>
					<path class="st0" d="M130.7,216.95c1.03,0.37,3.27-0.19,4.09-0.74C134,217.31,131.57,217.75,130.7,216.95z"/>
					<path class="st0" d="M125.48,215.45c1,0.54,3.26,0.16,4.11-0.36C128.73,216.23,126.29,216.46,125.48,215.45z"/>
					<path class="st0" d="M129.89,167.16c0.42,1.02,2.33,2.3,3.29,2.54C131.83,169.85,129.87,168.35,129.89,167.16z"/>
					<path class="st0" d="M136.01,173c0.7,0.84,2.92,1.49,3.9,1.43C138.68,174.98,136.36,174.14,136.01,173z"/>
					<path class="st0" d="M126.9,219.93c0.94,0.47,3.08,0.12,3.88-0.35C129.96,220.6,127.66,220.81,126.9,219.93z"/>
					<path class="st0" d="M130,228.52c0.96,0.39,3.03-0.14,3.78-0.68C133.07,228.92,130.82,229.33,130,228.52z"/>
					<path class="st0" d="M129.38,223.8c1.03,0.37,3.27-0.19,4.09-0.74C132.68,224.16,130.25,224.61,129.38,223.8z"/>
					<path class="st0" d="M132.65,226c1.03,0.37,3.27-0.19,4.09-0.74C135.95,226.36,133.52,226.8,132.65,226z"/>
					<path class="st0" d="M132.1,220.62c0.86,0.31,2.73-0.16,3.41-0.62C134.85,220.92,132.83,221.29,132.1,220.62z"/>
					<path class="st0" d="M135.6,234.72c0.98,0.3,3.05-0.33,3.78-0.89C138.7,234.9,136.45,235.43,135.6,234.72z"/>
					<path class="st0" d="M134.02,229.86c0.99,0.36,3.13-0.18,3.92-0.71C137.18,230.21,134.86,230.63,134.02,229.86z"/>
					<path class="st0" d="M150.85,256.12c0.7-0.08,1.66-1.09,1.87-1.67C152.75,255.36,151.64,256.35,150.85,256.12z"/>
					<path class="st0" d="M153.82,258.83c0.61-0.12,1.39-1.07,1.54-1.59C155.45,258.03,154.54,258.98,153.82,258.83z"/>
					<path class="st0" d="M156.09,261.35c0.64-0.1,1.49-1.06,1.66-1.6C157.81,260.58,156.83,261.53,156.09,261.35z"/>
					<path class="st0" d="M158.8,263.21c0.5-0.13,1.11-0.95,1.2-1.4C160.12,262.47,159.4,263.31,158.8,263.21z"/>
					<path class="st0" d="M161.36,264.81c0.38-0.15,0.91-0.85,1.02-1.2C162.4,264.11,161.79,264.82,161.36,264.81z"/>
					<path class="st0" d="M131.95,233c0.98,0.34,3.02-0.3,3.74-0.87C135.04,233.25,132.82,233.77,131.95,233z"/>
					<path class="st0" d="M147.11,253.18c0.92-0.11,2.33-1.42,2.69-2.16C149.7,252.17,148.11,253.46,147.11,253.18z"/>
					<path class="st0" d="M144.36,250.28c0.84-0.1,2.13-1.29,2.45-1.98C146.72,249.37,145.27,250.54,144.36,250.28z"/>
					<path class="st0" d="M141.61,247.48c0.99-0.16,2.54-1.59,2.96-2.39C144.42,246.32,142.67,247.74,141.61,247.48z"/>
					<path class="st0" d="M138.86,244.24c0.95,0,2.62-1.12,3.12-1.81C141.66,243.55,139.81,244.64,138.86,244.24z"/>
					<path class="st0" d="M137.09,240.91c1.03,0.19,3.06-0.7,3.74-1.35C140.27,240.72,138.05,241.53,137.09,240.91z"/>
					<path class="st0" d="M134.17,238.07c1.05,0.32,3.26-0.36,4.04-0.95C137.48,238.26,135.08,238.83,134.17,238.07z"/>
					<path class="st0" d="M125.24,174.22c0.7,0.84,2.92,1.49,3.9,1.43C127.9,176.2,125.58,175.36,125.24,174.22z"/>
					<path class="st0" d="M134.61,177.72c0.7,0.84,2.92,1.49,3.9,1.43C137.27,179.7,134.95,178.85,134.61,177.72z"/>
					<path class="st0" d="M132.8,182.39c0.76,0.8,3.01,1.3,3.98,1.18C135.59,184.19,133.22,183.5,132.8,182.39z"/>
					<path class="st0" d="M126.56,181.68c0.78,0.83,3.11,1.35,4.13,1.22C129.45,183.55,127,182.83,126.56,181.68z"/>
					<path class="st0" d="M129.1,178.12c0.73,0.87,3.02,1.54,4.04,1.48C131.86,180.17,129.46,179.3,129.1,178.12z"/>
					<path class="st0" d="M129.87,212.59c1,0.46,3.27,0.1,4.14-0.38C133.12,213.24,130.67,213.47,129.87,212.59z"/>
					<path class="st0" d="M127.47,208.51c1.08,0.59,3.65,0.34,4.64-0.13C131.06,209.46,128.3,209.55,127.47,208.51z"/>
					<path class="st0" d="M127.95,202.92c0.81,0.74,3.09,1.08,4.06,0.89C130.86,204.52,128.44,204,127.95,202.92z"/>
					<path class="st0" d="M128.23,184.71c0.76,0.8,3.01,1.3,3.98,1.18C131.02,186.51,128.65,185.82,128.23,184.71z"/>
					<path class="st0" d="M125.83,189.52c0.76,0.8,3.01,1.3,3.98,1.18C128.61,191.32,126.24,190.63,125.83,189.52z"/>
					<path class="st0" d="M124.16,197.78c0.59,0.7,2.43,1.24,3.25,1.19C126.39,199.43,124.45,198.72,124.16,197.78z"/>
					<path class="st0" d="M124.64,205.82c0.81,0.44,2.72,0.26,3.46-0.09C127.32,206.53,125.26,206.59,124.64,205.82z"/>
					<path class="st0" d="M125.45,193.71c0.59,0.7,2.43,1.24,3.25,1.19C127.68,195.37,125.74,194.66,125.45,193.71z"/>
					<path class="st0" d="M131.32,188.53c0.76,0.8,3.01,1.3,3.98,1.18C134.11,190.33,131.74,189.64,131.32,188.53z"/>
					<path class="st0" d="M128.56,197.51c0.79,0.76,3.06,1.17,4.03,1C131.42,199.18,129.03,198.6,128.56,197.51z"/>
					<path class="st0" d="M123.79,200.18c0.79,0.74,3.01,1.09,3.96,0.89C126.62,201.78,124.26,201.25,123.79,200.18z"/>
					<path class="st0" d="M123.87,211.51c1.02,0.54,3.33,0.16,4.2-0.37C127.19,212.29,124.69,212.52,123.87,211.51z"/>
					<path class="st0" d="M129.71,193.41c0.79,0.76,3.06,1.17,4.03,1C132.57,195.09,130.17,194.5,129.71,193.41z"/>
					<path class="st0" d="M149.27,149.74c0.18,1.08,1.77,2.76,2.65,3.2C150.58,152.79,149,150.89,149.27,149.74z"/>
					<path class="st0" d="M133.27,164.41c0.44,1.01,2.38,2.25,3.34,2.47C135.27,167.06,133.28,165.6,133.27,164.41z"/>
					<path class="st0" d="M137.84,163.04c0.31,1.05,2.09,2.52,3.02,2.85C139.51,165.91,137.71,164.22,137.84,163.04z"/>
					<path class="st0" d="M145.21,155.36c0.17,1.03,1.68,2.63,2.52,3.05C146.45,158.27,144.94,156.46,145.21,155.36z"/>
					<path class="st0" d="M161.44,149.34c0.18,1.08,1.77,2.76,2.65,3.2C162.74,152.39,161.16,150.49,161.44,149.34z"/>
					<path class="st0" d="M139.65,157.96c0.18,1.08,1.77,2.76,2.65,3.2C140.95,161.02,139.38,159.12,139.65,157.96z"/>
					<path class="st0" d="M145.13,150.5c0.18,1.08,1.77,2.76,2.65,3.2C146.44,153.55,144.86,151.66,145.13,150.5z"/>
					<path class="st0" d="M146.16,159.75c0.35,1.08,2.22,2.59,3.18,2.94C147.96,162.69,146.06,160.95,146.16,159.75z"/>
					<path class="st0" d="M156.39,152.77c0.21,1.11,1.85,2.86,2.76,3.34C157.78,155.92,156.14,153.95,156.39,152.77z"/>
					<path class="st0" d="M139.66,151.79c0.23,1.34,2.18,3.41,3.27,3.96C141.27,155.57,139.32,153.22,139.66,151.79z"/>
					<path class="st0" d="M151.01,156.08c0.21,1.11,1.85,2.86,2.76,3.34C152.4,159.24,150.75,157.26,151.01,156.08z"/>
					<path class="st0" d="M168.2,137.37c-0.28,1.29,0.75,3.87,1.54,4.76C168.31,141.36,167.38,138.54,168.2,137.37z"/>
					<path class="st0" d="M175.87,131.12c-0.44,1.14,0.13,3.66,0.73,4.58C175.38,134.8,174.94,132.07,175.87,131.12z"/>
					<path class="st0" d="M169.56,131.89c-0.28,1.29,0.75,3.85,1.53,4.73C169.67,135.87,168.75,133.06,169.56,131.89z"/>
					<path class="st0" d="M174.03,136.39c-0.27,1.28,0.75,3.84,1.53,4.72C174.13,140.35,173.22,137.55,174.03,136.39z"/>
				</g>
			</g>
			<g>
				<path class="st1" d="M119.74,194.47c0.17,7.94,1.3,16.76,3.6,24.78c2.81,9.79,7.25,18.25,13.39,25.6
					C127.12,231.6,122.06,214.27,119.74,194.47z"/>
				<g>
					<path class="st1" d="M204.59,276.05c-3.28-2.8-7.89-5.11-10.94-5.45c-0.82-0.09-1.77-0.03-2.58,0.08
						c1.14,0.26,1.98,0.29,2.87,0.49C196.68,271.76,199.67,272.88,204.59,276.05z"/>
					<path class="st1" d="M191.59,277.44c0.57,0.27,1.39,0.47,2.38,0.58c2.13,0.24,4.79,0.03,7.17-0.38
						C197.64,277.91,193.78,277.43,191.59,277.44z"/>
					<path class="st1" d="M199.12,275.63c-4.91-1.76-8.58-2.77-11.19-2.72C190.61,273.8,194.45,274.7,199.12,275.63z"/>
				</g>
				<path class="st1" d="M186.48,271.46c0.14,0.77-0.15,1.55-0.81,2.04C186.7,273.36,187.08,272.29,186.48,271.46z"/>
				<path class="st1" d="M148.79,131.31c2.12-3.7,4.59-6.89,7.34-9.68c-4.87,3.28-9.34,7.03-13.37,11.2
					c-5.87,6.08-10.67,12.97-14.35,20.49C132.1,146.6,140.28,137.39,148.79,131.31z"/>
				<path class="st1" d="M202.44,112.2c5.93-2.95,11.91-5.09,21.3-4.98c-20.01-3.06-40.53-0.2-58.69,9.14
					C175.35,112.87,189.95,111.26,202.44,112.2z"/>
				<path class="st1" d="M228.5,171.93c-5.71,3.48-12.51,5.93-17.42,7.62c9.31-0.44,24.15-3.23,32.21-5.71L228.5,171.93z"/>
				<path class="st1" d="M221.32,118.17c-6.61-1.3-13.03-1.4-18.82-0.77c5.67,0.48,11.12,1.32,16.18,2.8L221.32,118.17z"/>
				<path class="st1" d="M217.43,122.16c-10.15-2.16-19.82-2.03-29.15-0.22c9.3-0.2,18.15,1.14,26.61,3.48L217.43,122.16z"/>
			</g>
		</g>
		<g>
			<g>
				<g>
					<path class="st0" d="M153.44,239.11c1.01,0.65,2,1.46,3.03,2.51c-0.63,1.09-1.05,2.16-1.41,3.23L153.44,239.11z"/>
					<path class="st1" d="M154.23,240.22c0.56,0.43,1.12,0.92,1.68,1.48c-0.11,0.21-0.22,0.41-0.32,0.61
						C155.21,241.64,154.75,240.94,154.23,240.22z"/>
				</g>
				<g>
					<path class="st0" d="M155.35,245.74c1.09,0.46,2.2,1.09,3.37,1.94c-0.43,1.16-0.66,2.28-0.84,3.38L155.35,245.74z"/>
					<path class="st1" d="M156.32,246.7c0.61,0.33,1.23,0.71,1.87,1.15c-0.07,0.2-0.13,0.4-0.19,0.59
						C157.52,247.89,156.95,247.3,156.32,246.7z"/>
				</g>
				<g>
					<path class="st0" d="M158.63,251.96c1.05,0.27,2.14,0.7,3.33,1.31c-0.24,1.12-0.3,2.16-0.31,3.19L158.63,251.96z"/>
					<path class="st1" d="M159.73,252.78c0.56,0.2,1.13,0.45,1.72,0.74c-0.04,0.19-0.07,0.38-0.09,0.57
						C160.91,253.68,160.35,253.24,159.73,252.78z"/>
				</g>
				<g>
					<path class="st0" d="M162.73,257.72c1.01,0.1,2.08,0.34,3.26,0.74c-0.06,1.06,0.03,2.04,0.16,2.99L162.73,257.72z"/>
					<path class="st1" d="M163.95,258.37c0.51,0.11,1.03,0.24,1.58,0.42c0,0.17-0.01,0.34,0,0.51
						C165.09,258.99,164.55,258.68,163.95,258.37z"/>
				</g>
				<g>
					<path class="st0" d="M166.55,261.93c0.9,0.01,1.85,0.12,2.93,0.38c0.04,0.94,0.2,1.79,0.4,2.61L166.55,261.93z"/>
					<path class="st1" d="M167.83,262.47c0.39,0.05,0.79,0.12,1.21,0.21c0.01,0.13,0.02,0.25,0.03,0.38
						C168.73,262.85,168.3,262.66,167.83,262.47z"/>
				</g>
				<g>
					<path class="st0" d="M170.23,265.29c0.76-0.08,1.58-0.07,2.51,0.05c0.12,0.79,0.33,1.5,0.58,2.18L170.23,265.29z"/>
					<path class="st1" d="M171.57,265.7c0.25,0.01,0.51,0.03,0.77,0.05c0.02,0.09,0.03,0.17,0.05,0.26
						C172.16,265.9,171.88,265.8,171.57,265.7z"/>
				</g>
			</g>
			<g>
				<g>
					<path class="st0" d="M205.12,146.52c-5.88,5.47-4.85,13.77-8.61,15.37C202.31,162.56,199.78,153.32,205.12,146.52z"/>
					<path class="st0" d="M200.67,160.42c1.28-1.41,1.29-5.39,2.76-8.78C202.46,156.08,203.23,159.54,200.67,160.42z"/>
				</g>
				<g>
					<path class="st0" d="M206.06,144.41c-6.92,4.25-10.7,11.47-10.11,15.74c-3.78-0.21-8.71-1.63-11.58-3.77
						c-0.68-1.05-2.11-1.93-4.81-2.55c-0.43-1.15-1.84-2.16-4.71-2.99c-0.08-1.32-1.59-2.43-4.52-3.32
						c-0.08-1.27-1.93-2.1-5.16-2.59c-0.38-1.31-2.73-1.69-6.08-1.58C170.21,135.8,192.94,134.25,206.06,144.41z"/>
					<g>
						<path class="st1" d="M201.48,143.95c-10.11-6.13-23-5.61-34.17-2.52C181.34,138.73,192.37,140.04,201.48,143.95z"/>
						<path class="st1" d="M199.58,145.48c-6.96-3.59-19.4-4.63-29.54-2.69C181.7,142,191.6,142.95,199.58,145.48z"/>
						<path class="st1" d="M197.94,147.04c-6.55-2.53-15.36-3.03-23.99-2.42C182.62,144.69,191.4,145.66,197.94,147.04z"/>
					</g>
				</g>
			</g>
			<g>
				<g>
					<path class="st0" d="M209.45,175.84c-2.83,11.61-15.56,27.18-23.98,31.17c0.79-1.26,1.07-3.14,0.61-3.77
						c0.67-1.75,0.73-3.16,0-4.11c0.59-1.48,0.47-2.68-0.16-3.59c0.59-1.46,0.57-2.95-0.21-3.8c0.37-1.33,0.29-2.45-0.37-3.35
						c0.31-0.9-0.67-2.82,0.23-4.17c0.64-0.96,2.03-1.53,4.77-2.39c3.78-1.18,7.65-2.83,10.6-4.93
						C205.97,176.97,208.24,176.53,209.45,175.84z"/>
					<g>
						<path class="st1" d="M206.2,180.06c-4.74,9.44-11.35,16.75-17.61,22.42c3.99-4.13,9.08-10.22,12.89-16.28
							C203.15,183.55,204.8,180.68,206.2,180.06z"/>
						<path class="st1" d="M202.61,181.63c-3.83,6.44-8.41,11.56-12.71,15.23c2.9-3.04,5.96-6.57,8.54-10.33
							C199.65,184.76,201.25,182.21,202.61,181.63z"/>
						<path class="st1" d="M198.92,183.33c-2.31,3.22-4.87,6.09-7.13,8.03c1.43-1.48,3.1-3.47,4.62-5.53
							C197.2,184.77,198.01,183.69,198.92,183.33z"/>
					</g>
				</g>
				<g>
					<path class="st1" d="M205.45,174.61c-1.33,0.51-2.81,0.93-4.15,0.99c2.18,0.26,4.44-0.2,6.21-1.02
						c0.35-0.16,1.77-0.72,2.57,0.54c-0.09-1.31-1.09-2.1-2.5-1.43C206.96,173.99,206.23,174.32,205.45,174.61z"/>
					<path class="st1" d="M207.81,173.07c-1.02-1-2.29,0.89-3.84,1.65C205.65,174.23,207.1,173.2,207.81,173.07z"/>
				</g>
			</g>
			<g>
				<path class="st0" d="M151.88,233.47c1.55,0.89,2.9,2.7,4.19,4.85c-0.33-1.51-0.3-2.98,0.46-4.13c-0.2-1.22,0.11-2.75,0.84-3.31
					c-0.14-1.26,0.3-2.53,1.21-3.14c0.19-1.56,0.84-2.82,1.91-3.17c0.19-2.12,1.13-3.52,3.15-3.89c1.19-1.53,3.2-1.67,4.94-0.46
					c1.31-0.7,3.83,1.23,4.55,3.08c0.88-0.56,3.21,2.42,3.39,4.19c1.27-0.41,3.01,2.25,3.88,5.51c-0.56-11.52-7.01-26.57-15.68-35.9
					l-10.23,12.85l-2.19,13.14L151.88,233.47z"/>
				<g>
					<path class="st1" d="M164.79,200.25c4.77,5,9.68,14.81,12.18,24.81C173.06,214.54,169,206.13,164.79,200.25z"/>
					<path class="st1" d="M163.36,201.63c3.62,6,6.42,12.34,9.44,19.45C171.07,214.8,167.47,206.57,163.36,201.63z"/>
					<path class="st1" d="M161.81,203.4c2.74,4.93,5.12,10.03,7.08,15.31C168.13,214.18,164.4,206.3,161.81,203.4z"/>
				</g>
			</g>
		</g>
	</g>
	<g>
		<path class="st2" d="M224.01,114.31c5.98-4.52,13.39-6.62,21.19-3.68c17.12,5.97,33.81,21.89,39.92,29.42
			c3.14,3.88,4.67,6.26,0.93,9.53c-2.6,2.27-6.53,4.96-10.01,7.23c1.2,0.3,9.39,2.55,10.18,3.53c2.2,2.75-14.88,9-17.69,9.85
			c-12.74,3.84-26.77,6.29-36.79,4.84c-4.49-0.65-11.76-3.02-14.69-9.33C204.55,154.03,206.67,127.4,224.01,114.31z"/>
		<g>
			<path class="st1" d="M217.32,163c-0.02-2.45,0.32-4.75,0.97-6.9c-0.28,6.65,2.22,12.87,11.6,15.75c4.74,1.46,9.51,1.5,14.1,1.21
				c7.28-0.04,14.75-1.76,22.29-4.17c2.81-0.75,5.49-1.57,8.04-2.47c4.13-1.46,4.35-2.48,3.26-3.25c-1.21-0.84-3.54-1.67-5.25-2.07
				c3.27,0.32,6.98,0.79,9.55,0.5c-4.21-0.3-13.17-2.8-21.89-4.17c0,0-0.46,0.32-1.12,0.77c2.84,0.37,5.65,0.95,8.45,1.7
				c-3.39-0.36-6.67-0.62-9.8-0.78c-1.02,0.7-2.1,1.43-2.68,1.8c-1.15,0.74-2,0.45-2.69-0.7c-0.55-0.98-0.99-2.03-1.26-3.39
				l-0.01,0.01c-3.98-0.18-5.63-1.68-6.4-4.69c1.27,2.04,2.49,2.43,3.64,2.56c1.95,0.22,3.66-1.23,4.87-2.11
				c4.99-3.59,10.73-6.3,17.05-8.32c-2.56-0.64-4.98-0.5-7.29,0.89c-9.98,6-12.49-5.87-19.13-3c0.85-1.54,2.1-2.8,3.81-3.75
				c-3.91-0.81-5.59,2.05-7.1,2.84c-1.81,0.94-3.41,0.39-5.11,1.86c-0.49,0.43-0.9,0.96-1.2,1.59c-2.9,6.15-3.24,12.23-1.12,16.83
				c1.59,0.59,2.81,1.63,3.94,2.69c3,2.84,5.21,4.07,10.7,3.41c2.03-0.24,3.99-0.7,5.21-1.29c-7.14-0.94-11.76-3.26-12.33-7.72
				c1.67,4.03,8.04,6.27,19.95,6.54c5.28,0.12,9.13-0.13,12.61-0.65c-2.85,1.31-8.2,2.17-13.99,2.25c-4.79,1.89-8.74,3.07-13.7,3.49
				c-6.53,0.56-11.42-1.86-15.59-6.13c-2.96-3.03-4.26-6.98-3.02-12.75c0.73-5.42,3.65-10.34,1.57-13.02
				c-1.07-1.38-1.96-2.04-3.69-1.85c-1.39,0.14-2.46,0.01-3.27-1.17c-2.02-2.95-5.25-3.58-6.21-1.71
				C209.27,144.87,212.55,156.67,217.32,163z"/>
			<g>
				<path class="st3" d="M253.73,137.58c0.59-2.7,3.25-4.42,5.95-3.83c2.7,0.59,4.42,3.25,3.83,5.95c-0.59,2.7-3.25,4.42-5.95,3.83
					C254.86,142.95,253.14,140.28,253.73,137.58z"/>
				<path class="st2" d="M254.15,136.9c0.68-3.14,3.78-5.14,6.92-4.45c3.14,0.68,5.13,3.78,4.45,6.92s-3.78,5.14-6.92,4.46
					C255.46,143.13,253.47,140.04,254.15,136.9z"/>
				<path class="st3" d="M255.76,136.65c0.5-2.31,2.78-3.79,5.1-3.28c2.31,0.5,3.78,2.78,3.28,5.1c-0.5,2.31-2.78,3.78-5.1,3.28
					S255.26,138.96,255.76,136.65z"/>
				<path class="st2" d="M257.41,137.72c0.34-1.55,1.86-2.53,3.41-2.19c1.55,0.34,2.53,1.86,2.19,3.41
					c-0.34,1.55-1.86,2.53-3.41,2.19C258.06,140.8,257.08,139.27,257.41,137.72z"/>
				<path class="st3" d="M260.79,137.74c0.1-0.46,0.56-0.76,1.02-0.66c0.46,0.1,0.76,0.56,0.66,1.02c-0.1,0.46-0.56,0.76-1.02,0.66
					C260.99,138.66,260.69,138.2,260.79,137.74z"/>
			</g>
			<path class="st1" d="M273.23,157.01c2.18,0.62,5.16,1.76,8.09,2.52c-5.22-0.7-10.39-2.81-13.74-3.25
				c1.82-0.23,2.66-0.07,4.11,0.2c2.93-1.79,5.92-3.74,8.49-5.62c1.54-1.12,2.77-2.06,3.65-2.85c2.54-2.3,2.05-3.59-2.23-2.51
				c-2.24,0.56-4.81,1.53-5.58,1.82c-6.61,2.52-13.05,6.27-19.07,10.01c-1.16,0.72-2.08,1.18-2.6,0.12
				c-0.59-1.19-0.6-2.46,1.01-3.62c5.72-4.14,12.39-7.2,20.4-8.77c3.53-0.69,6.29-1.33,6.22-2.66c-0.05-0.88-2.45-3.55-3.94-4.6
				c-1.23-0.87-2.81-1.62-4.91-2.04c-1.98-0.4-4.03-0.69-5.46-2.63c-2.68-3.63-5.82-6.02-10.83-6.2c-3.37-0.12-6.18-0.96-8.28-3.24
				c-2.36-2.57-5.24-3.44-8.63-3.58c-2.09-0.09-3.38,0.69-4.83,0.52c-1.46-0.17-2.55-1.09-3.94-1.49c1.15-1.25,2.96-2.07,5.01-2.74
				c-2.23-0.04-4.32,0.15-6.16,0.73c2.74-1.65,5.87-2.78,9.33-3.47c-3.97-0.28-7.9,0.21-11.81,1.28c5.82-3.18,12.74-3.51,21.01-0.36
				c17.07,6.5,37.39,26.31,38.27,30.74c0.23,1.18-0.41,2.05-1.68,3.27C282.21,151.37,276.39,154.99,273.23,157.01z"/>
			<path class="st3" d="M274.63,139.01c-0.04-0.31-0.15-0.58-0.29-0.8c0.4,0.1,0.84,0.33,1.1,0.53c-0.33-0.47-0.94-1.12-1.72-1.42
				c-1.04-0.41-1.25,0.62-1.12,1.48c0.23,1.56,1.04,2.36,2.63,2.02c-0.52-0.06-0.92-0.21-1.22-0.46
				C274.45,140.3,274.72,139.71,274.63,139.01z"/>
			<path class="st3" d="M247.48,124.41c-2.21-2.57-5.49-3.56-9.33-3.11C241.57,121.47,244.65,122.59,247.48,124.41z"/>
			<path class="st3" d="M235.08,141.85c1.42-1.11,3.39-0.84,4.84-1.89c0.96-0.69,1.62-1.84,2.69-2.33
				c-1.22,0.12-2.23,0.98-3.21,1.73C237.72,140.63,236.29,140.41,235.08,141.85z"/>
			<path class="st3" d="M217.7,131.29c0.68-0.03,1.49,0.13,2.07,0.48c2.01,1.2,2.15,3.45,3.97,3.64c0.88,0.09,1.99-0.22,2.98,0.21
				c-0.58-0.81-1.82-0.85-2.62-1.15C222.58,133.9,220.89,130.85,217.7,131.29z"/>
			<path class="st3" d="M251.79,157.43c0.15,0.78,0.88,2.58,1.57,2.97c0.58,0.32,1.61-0.45,2.18-0.84
				c-0.67,0.21-1.34,0.34-1.92,0.06C252.86,159.25,252.2,158.16,251.79,157.43z"/>
		</g>
		<g>
			<path class="st0" d="M249.6,166.55c-1.12-0.08-2.92-0.58-3.67-0.94c-1.04,0.07-2.68-0.02-4.2-0.46
				C242.77,166.41,246.15,167.26,249.6,166.55z"/>
			<path class="st0" d="M235.71,144.99c-2.43,2.23-3.82,10.09-2.46,15.22C233.06,155.2,233.71,149.04,235.71,144.99z"/>
			<path class="st2" d="M258.8,121.37c-7.71-3.97-15.7-5.68-21.34-5.82C242.31,113.94,251.89,116.37,258.8,121.37z"/>
			<path class="st2" d="M233.47,169.02c-3.38-2.24-5.68-4.71-7.1-7.37c-2.03-3.81-1.81-7.95-0.74-12.41
				C221.99,158.48,225.18,165.79,233.47,169.02z"/>
			<path class="st2" d="M226,164.57c-2.18-2.46-3.41-6.71-3.73-11.2C222.05,158.01,222.56,163.16,226,164.57z"/>
			<path class="st2" d="M215.96,158.41c-3.19-7.16-3.17-17.09-0.29-23.18C214.01,144.26,213.9,151.96,215.96,158.41z"/>
			<path class="st2" d="M215.57,149.4c0.33-6.2,1.17-11.49,2.92-15.18C215.67,137.25,215.16,143.72,215.57,149.4z"/>
			<path class="st2" d="M261.68,127.03c-2.6-2.78-8.03-1.75-12.23-4.51C252.1,126.74,258.33,124.85,261.68,127.03z"/>
			<path class="st2" d="M254.26,169.53c1.35-0.79,3.14-1.41,4.83-1.73c1.87-0.35,3.83-0.23,5.64-0.81
				c-1.55,0.92-3.39,1.25-5.17,1.48S256.33,168.88,254.26,169.53z"/>
			<g>
				<path class="st0" d="M245.49,155.78c-1.13-1.25-7.9,0.27-10.78-1.87C236.22,156.05,243.45,156.03,245.49,155.78z"/>
				<path class="st0" d="M239.95,156.33c2.85,0.12,5.11-0.17,6.37-0.07C244.97,156.76,242.63,156.9,239.95,156.33z"/>
			</g>
		</g>
	</g>
</g>
<g>
	<path class="st0" d="M89.58,265.56c-0.76-0.7-0.14-2.23,0.87-3.38c0.77-0.88,1.68-1.45,2.38-1.5c0.42-0.03,0.68,0.12,0.83,0.26
		c0.76,0.7,0.14,2.23-0.87,3.38c-0.77,0.88-1.68,1.45-2.38,1.5c-0.33,0.02-0.56-0.06-0.71-0.17
		C89.65,265.62,89.61,265.59,89.58,265.56z M92.86,261.66c-0.35,0.03-1.03,0.4-1.69,1.16c-0.9,1.03-1.03,1.89-0.91,2
		c0.01,0.01,0.05,0.02,0.12,0.02c0.35-0.03,1.03-0.4,1.69-1.16c0.9-1.03,1.03-1.89,0.91-2c0,0,0,0,0,0
		C92.96,261.66,92.92,261.65,92.86,261.66z"/>
	<path class="st0" d="M61.22,230.42c-0.36-0.87,0.69-1.91,1.9-2.48c0.92-0.43,1.85-0.57,2.43-0.35c0.36,0.13,0.52,0.37,0.59,0.54
		c0.36,0.87-0.69,1.91-1.9,2.48c-0.92,0.43-1.85,0.57-2.43,0.35c-0.12-0.04-0.21-0.1-0.29-0.16
		C61.35,230.67,61.27,230.53,61.22,230.42z M63.51,228.82c-0.96,0.45-1.37,1.02-1.38,1.19c0,0,0,0,0,0c0.12,0.1,0.79,0.14,1.72-0.3
		c0.99-0.47,1.39-1.05,1.39-1.18c0,0-0.01-0.01-0.01-0.01C65.1,228.43,64.44,228.38,63.51,228.82z"/>
	<path class="st0" d="M51.2,195.04c-0.26-0.25-0.31-0.52-0.31-0.7c0.02-0.9,1.27-1.43,2.5-1.48c0.94-0.04,1.75,0.18,2.17,0.58
		c0.26,0.25,0.31,0.52,0.31,0.7c-0.02,0.9-1.27,1.43-2.5,1.48c-0.86,0.04-1.6-0.14-2.04-0.48C51.28,195.11,51.24,195.08,51.2,195.04
		z M53.4,193.83c-0.88,0.04-1.41,0.34-1.52,0.48c0.1,0.12,0.62,0.37,1.48,0.33c0.94-0.04,1.48-0.38,1.53-0.45
		c-0.01-0.02-0.03-0.04-0.06-0.07C54.67,193.99,54.18,193.8,53.4,193.83z"/>
	<path class="st0" d="M52.94,166.4c-0.14-0.28-0.11-0.52-0.06-0.67v0c0.27-0.8,1.53-0.84,2.58-0.55c0.86,0.24,1.51,0.66,1.75,1.12
		c0.14,0.28,0.11,0.52,0.06,0.67c-0.27,0.8-1.52,0.84-2.58,0.55c-0.52-0.14-0.96-0.35-1.28-0.6
		C53.2,166.76,53.04,166.59,52.94,166.4z M55.17,166.13c-0.59-0.16-1.04-0.15-1.27-0.1c0.16,0.16,0.52,0.39,1.09,0.55
		c0.59,0.16,1.04,0.15,1.27,0.1C56.1,166.52,55.73,166.28,55.17,166.13z"/>
	<path class="st0" d="M65.04,140.01c-0.03-0.27,0.07-0.46,0.16-0.56c0.37-0.46,1.19-0.36,1.98,0.25c0.51,0.39,0.83,0.87,0.87,1.28
		c0.03,0.27-0.07,0.46-0.16,0.56c-0.37,0.46-1.19,0.36-1.98-0.25C65.41,140.9,65.08,140.42,65.04,140.01z M66.68,140.34
		c-0.36-0.28-0.67-0.36-0.82-0.37c0.05,0.14,0.21,0.4,0.56,0.67c0.36,0.28,0.67,0.36,0.82,0.37
		C67.19,140.87,67.03,140.61,66.68,140.34z"/>
	<path class="st0" d="M82.04,124.57c-0.35-0.55-0.49-1.13-0.39-1.54c0.07-0.27,0.22-0.42,0.34-0.49l0,0
		c0.51-0.32,1.24,0.06,1.78,0.92c0.35,0.55,0.49,1.13,0.39,1.54c-0.07,0.27-0.22,0.42-0.34,0.49c-0.32,0.2-0.74,0.12-1.13-0.18
		C82.46,125.14,82.24,124.89,82.04,124.57z M83.08,123.91c-0.25-0.4-0.52-0.6-0.67-0.66c0,0.15,0.05,0.46,0.3,0.87
		c0.27,0.43,0.57,0.63,0.66,0.68C83.4,124.66,83.35,124.33,83.08,123.91z"/>
	<path class="st0" d="M101.31,115.18c-0.18-0.23-0.32-0.55-0.4-0.9c-0.21-0.89,0.02-1.61,0.54-1.75c0.29-0.08,0.6,0.05,0.84,0.36
		c0.18,0.23,0.32,0.55,0.4,0.9c0.08,0.35,0.1,0.71,0.04,1c-0.08,0.4-0.29,0.67-0.58,0.75c-0.21,0.06-0.43,0.01-0.63-0.15
		C101.45,115.34,101.38,115.26,101.31,115.18z M101.69,114.06c0.07,0.28,0.17,0.49,0.26,0.6c0.03-0.14,0.03-0.38-0.03-0.66
		c-0.07-0.28-0.17-0.49-0.26-0.6C101.63,113.55,101.62,113.78,101.69,114.06z"/>
</g>
<g>
	<g>
		<path class="st0" d="M48.42,183.59c-1.8,31.72,14.11,71.2,51.24,93.93c18.06,11.06,37.88,17.29,62.57,17.11l0.04-5.96
			c-22.82,0.03-43.37-5.66-59.62-15.17C67.59,253,51.38,216.73,51.5,186.76c-0.52-37.47,23.67-65.18,49.87-73.12
			c1.47-0.46,0.87-1.46-0.18-1.21C75.78,118.7,49.82,146.17,48.42,183.59z"/>
		<path class="st0" d="M94.84,268.39l-2.99,3.86c-0.27,0.35-0.21,0.85,0.13,1.1c2.35,1.71,4.77,3.32,7.26,4.84
			c2.9,1.78,5.83,3.41,8.76,4.9c0.37,0.19,0.84,0.03,1.05-0.35l2.46-4.63c0.21-0.39,0.06-0.86-0.33-1.04
			c-2.79-1.3-5.51-2.73-8.13-4.26c-2.45-1.43-4.85-2.97-7.17-4.61C95.55,267.98,95.09,268.06,94.84,268.39z"/>
		<path class="st0" d="M126.7,282.94c-0.38-0.11-0.79,0.1-0.93,0.48l-2.03,5.46c-0.15,0.4,0.06,0.83,0.45,0.96
			c13.03,4.26,25.01,5.56,37.76,5.58c0.57,0,1.06-0.48,1.06-1.06l0.03-5.5c0-0.54-0.42-0.97-0.96-0.98
			C150.27,287.74,139.26,286.63,126.7,282.94z"/>
	</g>
	<g>
		<path class="st1" d="M111.18,278.74l-0.84,1.58c4.79,2.34,9.59,4.2,14.47,5.66l0.67-1.83
			C120.54,282.67,115.76,280.86,111.18,278.74z"/>
		<path class="st1" d="M93.51,270.11l0.86-1.1c-32.14-22.77-43.68-57.82-43.58-82.26c-0.1-6.74,0.58-13.1,1.87-19.05
			c4.11-18.87,14.52-33.55,26.88-43.28c-8.3,6.09-22.45,19.91-27.71,43.09C43.95,202.25,57.6,243.92,93.51,270.11z"/>
		<path class="st1" d="M94.53,270.01c2.31,1.63,4.78,3.21,7.33,4.71c2.68,1.58,5.48,3.03,8.3,4.41l0.58-1.07
			c0.08-0.15,0.02-0.32-0.14-0.4c-2.69-1.31-5.34-2.71-7.91-4.2c-2.43-1.43-4.79-2.94-7-4.48c-0.13-0.1-0.29-0.07-0.39,0.06
			L94.53,270.01z"/>
		<path class="st1" d="M125.73,285.67c11.6,3.38,22.58,4.92,36.58,5.09l0.01-1.91c-0.01-0.14-0.11-0.25-0.25-0.25
			c-13.54-0.17-24.13-1.63-35.3-4.89c-0.15-0.04-0.3,0.03-0.36,0.18L125.73,285.67z"/>
	</g>
</g>
<g>
	<defs>
		<polygon id="SVGID_1_" points="244.65,130.89 294.86,121.64 210.97,38.41 92.07,52.94 -3.71,166.56 2.23,282.15 171.33,302.63 
			237.39,261.01 275.7,230.63 		"/>
	</defs>
	<clipPath id="SVGID_00000097476891200830569320000001898638715152883340_">
		<use xlink:href="#SVGID_1_"  style="overflow:visible;"/>
	</clipPath>
	<path style="clip-path:url(#SVGID_00000097476891200830569320000001898638715152883340_);fill:#070707;" d="M63.57,229.14
		c-7.03-13.66-10.87-28.64-10.82-42.18c-0.2-14.27,2.81-27.58,8.69-38.51c9.64-17.91,27.22-32.01,44.78-35.93
		c8.38-1.87,16.55-2.87,24.49-3.1c0.3-2.34,0.71-4.71,1.24-7.09c4.29-19.57,16.04-35.08,32.24-42.55c15.82-7.3,33.9-6.33,50.92,2.75
		c25.79,13.76,35.22,41.72,44.34,68.77c6.02,17.85,12.24,36.3,23.1,50.55c16.49,21.63,38.08,19.85,46.6,18.08
		c16.52-3.43,30.5-15.53,31.83-27.54c0.55-4.96-0.95-11.85-11.23-16.51c-8.57-3.88-21.26-3.53-30.38-2.56l-0.11-0.98
		c9.25-0.99,22.12-1.33,30.89,2.64c8.44,3.82,12.63,10.04,11.8,17.51c-1.37,12.41-15.7,24.88-32.61,28.39
		c-8.7,1.81-30.76,3.63-47.58-18.45c-10.96-14.38-17.21-32.91-23.25-50.83c-9.06-26.86-18.42-54.64-43.87-68.22
		c-16.74-8.93-34.51-9.89-50.04-2.72c-15.91,7.34-27.46,22.61-31.69,41.87c-0.5,2.3-0.91,4.58-1.21,6.85
		c53.76-1.17,96.65,32.84,117.31,71.46c12.65,23.64,14.67,45.73,5.01,54.97c-8.92,8.54-28.22,6.12-50.35-6.31
		c-21.46-12.05-41.52-30.92-55.04-51.76c-10.32-15.92-21.28-39.97-18.04-67.34c-7.83,0.24-15.9,1.24-24.15,3.08
		c-17.29,3.86-34.62,17.77-44.13,35.43c-5.8,10.78-8.77,23.93-8.58,38.04c-0.05,13.4,3.75,28.22,10.71,41.74
		c8.12,15.78,44.65,55.12,64.96,55.46l-0.02,0.98C108.51,284.78,72.12,245.75,63.57,229.14z M131.58,110.38
		c-6.52,53,38.84,99.32,72.58,118.27c21.74,12.21,40.59,14.69,49.19,6.46c9.33-8.93,7.24-30.55-5.2-53.8
		c-20.18-37.7-61.67-70.97-113.78-70.97C133.45,110.34,132.51,110.35,131.58,110.38z"/>
</g>
</svg>
