<?xml version="1.0" encoding="utf-8"?>
<svg xmlns="http://www.w3.org/2000/svg" xmlns:xlink="http://www.w3.org/1999/xlink">

    <symbol viewBox="0 0 48 48" fill="none" xmlns="http://www.w3.org/2000/svg" id="arrow-left">
        <g fill="none"><circle cx="24" cy="24" r="23.26" fill="#FFF"/><path fill="#DDDDDC" d="M24 2.25c12.01 0 21.75 9.73 21.75 21.75S36.02 45.75 24 45.75 2.25 36.01 2.25 24C2.26 12 11.98 2.27 24 2.25zM24 0C10.75 0 0 10.75 0 24s10.75 24 24 24 24-10.75 24-24C47.98 10.74 37.24.01 24 0z"/><path fill="#FF6C00" d="M23.3 17.16l-3.67 3.67c-.13.13-.18.34-.1.52.07.18.25.29.44.29h14.92c1.31 0 2.36 1.06 2.36 2.36 0 1.31-1.06 2.36-2.36 2.36H19.97c-.19 0-.36.11-.43.29s-.03.38.1.52l3.67 3.67c.92.93.92 2.42 0 3.34-.92.92-2.42.92-3.34 0l-8.52-8.51c-.44-.44-.7-1.05-.7-1.68 0-.63.25-1.23.7-1.68l8.52-8.52c.92-.92 2.42-.92 3.34 0 .91.94.91 2.44-.01 3.37z"/></g>
    </symbol>

    <symbol viewBox="0 0 48 48" fill="none" xmlns="http://www.w3.org/2000/svg" id="arrow-right">
        <g fill="none"><circle cx="24.01" cy="24" r="23.26" fill="#FFF"/><path fill="#DDDDDC" d="M45.75 24c0 12.01-9.73 21.75-21.75 21.75S2.26 36.01 2.26 24 11.99 2.25 24.01 2.25C36.02 2.27 45.74 12 45.75 24zM0 24c0 13.25 10.75 24 24 24s24-10.75 24-24S37.25 0 24 0C10.76.01.02 10.74 0 24z"/><path fill="#FF6C00" d="M24.7 13.8c.92-.92 2.42-.92 3.34 0l8.52 8.52a2.37 2.37 0 0 1 0 3.36l-8.52 8.51c-.92.92-2.42.92-3.34 0-.92-.92-.92-2.42 0-3.34l3.67-3.67c.13-.13.17-.34.1-.52a.455.455 0 0 0-.43-.29H13.12c-1.3 0-2.36-1.05-2.36-2.36 0-1.3 1.05-2.36 2.36-2.36h14.91c.19 0 .37-.11.44-.29s.03-.38-.1-.52l-3.67-3.67c-.92-.94-.92-2.44 0-3.37z"/></g>
    </symbol>

    <symbol viewBox="0 0 425.55 62.08" fill="none" xmlns="http://www.w3.org/2000/svg" id="back-to-team">
        <g fill="none"><path fill="#CECECE" d="M30.37 5.73c13.98 0 25.31 11.33 25.31 25.31 0 13.98-11.33 25.31-25.31 25.31-13.98 0-25.31-11.33-25.31-25.31.01-13.97 11.33-25.29 25.31-25.31zm0-5.06C13.6.67 0 14.27 0 31.04c0 16.77 13.6 30.37 30.37 30.37 16.77 0 30.37-13.6 30.37-30.37C60.72 14.27 47.13.69 30.37.67z"/><path fill="#FF6C00" d="M30.07 21.89l-4.91 4.91a.63.63 0 0 0 .45 1.08h19.94a3.16 3.16 0 0 1 0 6.32H25.61c-.26 0-.48.15-.58.39-.1.24-.04.51.13.69l4.91 4.91a3.169 3.169 0 0 1 0 4.47 3.169 3.169 0 0 1-4.47 0L14.21 33.28a3.18 3.18 0 0 1-.93-2.24c0-.84.33-1.65.93-2.24L25.6 17.41a3.169 3.169 0 0 1 4.47 0 3.18 3.18 0 0 1 0 4.48z"/><path fill="#E6E6E6" d="M56.35 0c9.21 7.22 15.13 18.44 15.13 31.04 0 12.6-5.92 23.82-15.13 31.04h369.2V0H56.35z"/><path fill="#000" d="M108.41 35.87c0 3.14-2.38 4.94-7 4.94h-8.73V22.52h8.21c4.21 0 6.56 1.78 6.56 4.73 0 1.99-1.02 3.37-2.46 4.08 2.06.57 3.42 2.11 3.42 4.54zM95.29 24.63v5.85h5.36c2.67 0 4.18-.99 4.18-2.93 0-1.93-1.52-2.93-4.18-2.93h-5.36v.01zm10.48 11.03c0-2.12-1.57-3.06-4.47-3.06h-6.01v6.09h6.01c2.91 0 4.47-.91 4.47-3.03zm20.96.58h-9.72L115 40.81h-2.69l8.28-18.29h2.59l8.31 18.29h-2.74l-2.02-4.57zm-.92-2.09l-3.95-8.96-3.95 8.96h7.9zm9.25-2.49c0-5.41 4.13-9.36 9.7-9.36 2.82 0 5.28.97 6.95 2.85l-1.7 1.65c-1.41-1.49-3.14-2.17-5.15-2.17-4.13 0-7.19 2.98-7.19 7.03 0 4.05 3.06 7.03 7.19 7.03 2.01 0 3.74-.71 5.15-2.2l1.7 1.65c-1.67 1.88-4.13 2.87-6.98 2.87-5.54.01-9.67-3.94-9.67-9.35zm28.95 1.02l-3.35 3.4v4.73h-2.61V22.52h2.61v10.22l9.93-10.22h2.98l-7.81 8.23 8.31 10.06h-3.06l-7-8.13zm28.71-7.89h-6.27v-2.27h15.13v2.27h-6.27v16.02h-2.59V24.79zm12.57 6.87c0-5.36 4.13-9.36 9.75-9.36 5.57 0 9.7 3.97 9.7 9.36 0 5.38-4.13 9.36-9.7 9.36-5.63 0-9.75-4-9.75-9.36zm16.83 0c0-4.05-3.03-7.03-7.08-7.03-4.1 0-7.13 2.98-7.13 7.03 0 4.05 3.03 7.03 7.13 7.03 4.04 0 7.08-2.97 7.08-7.03zm17.37 0c0-5.36 4.13-9.36 9.75-9.36 5.57 0 9.7 3.97 9.7 9.36 0 5.38-4.13 9.36-9.7 9.36-5.62 0-9.75-4-9.75-9.36zm16.83 0c0-4.05-3.03-7.03-7.08-7.03-4.1 0-7.13 2.98-7.13 7.03 0 4.05 3.03 7.03 7.13 7.03 4.05 0 7.08-2.97 7.08-7.03zm9.06 1.26v-10.4h2.61v10.3c0 4.05 1.86 5.88 5.15 5.88s5.18-1.83 5.18-5.88v-10.3h2.53v10.4c0 5.31-2.9 8.1-7.74 8.1-4.8 0-7.73-2.8-7.73-8.1zm35.67 7.89l-3.95-5.62c-.37.03-.76.05-1.15.05h-4.52v5.57h-2.61V22.52h7.13c4.76 0 7.63 2.4 7.63 6.38 0 2.82-1.46 4.86-4.02 5.77l4.34 6.14h-2.85zm-.08-11.92c0-2.61-1.75-4.1-5.1-4.1h-4.44v8.23h4.44c3.35 0 5.1-1.51 5.1-4.13zm22.72-4.1h-6.27v-2.27h15.13v2.27h-6.27v16.02h-2.59V24.79zm27.6 13.75v2.27h-13.28V22.52h12.91v2.27h-10.3v5.62h9.17v2.22h-9.17v5.91h10.67zm18.49-2.3h-9.72l-2.01 4.57h-2.69l8.28-18.29h2.59l8.31 18.29h-2.74l-2.02-4.57zm-.91-2.09l-3.95-8.96-3.95 8.96h7.9zm27.96 6.66l-.03-13.33-6.61 11.11h-1.2l-6.61-11.03v13.25h-2.51V22.52h2.14l7.63 12.86 7.53-12.86h2.14l.03 18.29h-2.51z"/></g>
    </symbol>

    <symbol viewBox="0 0 169.15 153.49" fill="none" xmlns="http://www.w3.org/2000/svg" id="gift">
        <g fill="none"><g transform="translate(8.433)"><path fill="#FFF" d="M37.107 69.53H118.157V118.16H37.107z"/><path fill="#FFF" d="M3.087 51.21L77.127 3.36 83.317 12.02 10.097 62.14z"/><g fill="#D66B30"><path d="M117.407 67.44h-79.93a2.5 2.5 0 0 0-2.5 2.5v47.46a2.5 2.5 0 0 0 2.5 2.5h79.93a2.5 2.5 0 0 0 2.5-2.5V69.94a2.5 2.5 0 0 0-2.5-2.5zm-77.44 5h29.98v42.46h-29.98V72.44zm34.97 42.46V72.44h5v42.46h-5zm39.97 0h-29.98V72.44h29.98v42.46zm-62.25-78.08s0-.01 0 0l33.43-21.98c.56-.37.95-.95 1.08-1.6.13-.66-.01-1.34-.39-1.89l-6.99-10.26a2.508 2.508 0 0 0-3.44-.68l-16.46 10.82c.11-2.28-.45-4.48-1.71-6.34-3.46-5.08-10.95-6.14-16.69-2.36-6.69 4.4-6.88 12.23-5.84 18.1-5.11-3.18-12.55-6.01-19.23-1.62-2.98 1.96-5.06 4.95-5.7 8.22-.56 2.83-.01 5.66 1.55 7.95 1.28 1.88 3.11 3.2 5.2 3.94L1.127 49.86c-.56.37-.95.95-1.08 1.6-.13.66.01 1.34.39 1.89l6.99 10.26c.48.71 1.27 1.09 2.07 1.09.47 0 .95-.13 1.37-.41l37.61-24.72 4.18-2.75zm24.39-30.89l4.18 6.13-29.26 19.23-4.18-6.13 4.05-2.66 2.18-1.44 23.03-15.13zm-31.35 29.48l-2.09 1.37-4.18-6.13 2.09-1.38 2.09-1.37 4.18 6.13-2.09 1.38zM44.227 6.7c1.49-.98 3.16-1.46 4.72-1.46 2.08 0 3.99.84 5.1 2.46 1.03 1.5.99 3.09.78 4.16-.39 1.96-1.68 3.79-3.55 5.02l-1.1.72-8.76 5.76c-1.32-4.44-2.88-12.91 2.81-16.66zm-27.84 25.67c-1.02-1.5-.99-3.09-.78-4.16.39-1.96 1.68-3.79 3.55-5.02 1.53-1.01 3.18-1.41 4.84-1.41 4.56 0 9.25 3.04 11.98 5.17l-9.77 6.42c-3.48 2.29-7.88 1.84-9.82-1zm-6.21 26.39l-4.18-6.13 29.26-19.23 4.18 6.13-29.26 19.23zm107.23-13.8l-2.5-5c-13.74 13.74-14.99 24.98-14.99 24.98 5-12.49 17.49-19.98 17.49-19.98zm-39.97 7.49c0-19.98 14.99-29.98 14.99-29.98l-2.5-5c-17.48 12.5-12.49 34.98-12.49 34.98zm-22.48 12.49s0-12.49-9.99-19.98l-2.5 5s9.99 4.99 12.49 14.98z"/><circle cx="42.467" cy="59.95" r="2.5"/><circle cx="102.417" cy="34.97" r="2.5"/><circle cx="69.947" cy="57.45" r="2.5"/><circle cx="64.947" cy="42.46" r="2.5"/><circle cx="92.427" cy="54.95" r="2.5"/></g></g><path fill="#D66B30" d="M25.91 135.87l-5.89 17.48h-1.95l-5.12-14.9-5.14 14.9H5.89L0 135.87h1.9l5.04 15.03 5.22-15.03h1.72l5.14 15.1 5.12-15.1h1.77zm15.74 15.88v1.6H29.3v-17.48h11.98v1.6H31.14v6.22h9.04v1.57h-9.04v6.49h10.51zm23.26 0v1.6H52.55v-17.48h11.98v1.6H54.4v6.22h9.04v1.57H54.4v6.49h10.51zm15.09 1.6l-5.64-7.69-5.62 7.69h-2.12l6.64-8.99-6.22-8.49h2.12l5.27 7.14 5.24-7.14h2l-6.19 8.44 6.67 9.04H80zm3.25-8.74c0-5.12 3.9-8.89 9.16-8.89 2.55 0 4.84.85 6.39 2.55l-1.17 1.17c-1.42-1.45-3.17-2.07-5.17-2.07-4.22 0-7.39 3.1-7.39 7.24 0 4.14 3.17 7.24 7.39 7.24 2 0 3.75-.62 5.17-2.1l1.17 1.17c-1.55 1.7-3.84 2.57-6.42 2.57-5.23.01-9.13-3.76-9.13-8.88zm31.87 7.14v1.6h-12.36v-17.48h11.98v1.6H104.6v6.22h9.04v1.57h-9.04v6.49h10.52zm4.35-15.88h1.85v15.88h9.79v1.6h-11.63v-17.48h-.01zm28.27 0l7.99 17.48h-1.95l-2.09-4.67h-9.74l-2.1 4.67h-1.92l7.99-17.48h1.82zm21.41 0v1.6h-6.14v15.88h-1.85v-15.88h-6.14v-1.6h14.13zm-22.32 1.92l-4.2 9.39h8.39l-4.19-9.39z"/></g>
    </symbol>

    <symbol viewBox="0 0 219.131 47.864" fill="none" xmlns="http://www.w3.org/2000/svg" id="logo">
        <g fill="#FFF"><path d="M27.12 29.254c-.29-.23-1.04-.63-1.27-.86-1.21-.46-3.22-.46-3.63-.46-.4 0-.35-.11-.75-.11s-1.9.34-2.65.57c-.17.17-1.27.81-1.9.81-.4 0-.12-.17-.4-.17-.35 0-2.59 1.67-2.99 1.67-.4 0-.17-.29-.46-.29-.4 0-2.01.81-2.99 1.27-.4.29-.63.58-.69.86.46.23 1.04 1.27.63 1.73.06.17.17.35.35.52.63.4 1.96 1.32 2.19 1.32.35 0 2.82-1.09 4.03-1.61.46-.17 1.32-.17 1.73-.34.52-.17.92-.46 1.32-.46.23 0 .35 0 .4.06-.69.92-1.73 2.53-2.71 2.59-.98.75-1.9 1.79-2.88 2.42.23-.17.63-.17.86-.46.06.06.06.06.06.11v.12c-.46.23-.98 1.04-1.27 1.04h-.29c.06.06.06.06.06.11-1.55 1.55-3.45 1.84-5.24 2.76-.23.06-.12.35-.52.35H6.96c-2.36 0-2.65-1.32-2.65-3.45 0-.23.35-3.28.52-4.61.06-.63.23-1.15.4-1.67.17-.46.06-1.21.23-1.61.46-1.55 1.04-3.17 1.5-4.09 1.09-2.3 3.4-6.79 4.49-8.81.17-.29.63-.69.81-.98.23-.17.23-.52.29-.69.46-.86 1.15-1.55 1.38-2.07.46-.75.75-1.61 1.21-2.13 1.84-2.07 2.82-3.8 4.95-4.49.46-.23 1.32-.63 1.61-.63.46 0 .86.52.86 1.15 0 .4-.58 2.25-1.09 3.57-.75 1.44-1.32 2.02-1.32 3.11 0 .46.17.63.35.86 0-.46.06-.69.52-.69.17.17.29.29.46.29 0-.17-.17-.4.23-.4.29 0 .4.29.58.29.46-.75.86-1.38 1.32-2.02.23.17-.12.29.29.29.46 0 .69-.92.92-1.15.69-.69 1.27-2.13 1.27-3.28 0-2.36-3.22-4.61-5.64-5.53-.17.17-.06.23-.29.4-.46-.29-1.32-.69-1.73-.69-.4 0 0 .29-.4.29s.06-.17-.35-.17c-.4 0-.17.29-.35.35-.75.23-1.67.06-2.42.81-.29 1.04-2.01 1.61-2.65 2.94-.63.63-2.25 2.42-3.17 3.63.23 0 .35-.06.58.11-1.32 1.84-2.42 3.8-3.51 5.41v.46c-2.76 4.61-4.84 9.79-5.99 14.39-.06.46.17.92 0 1.38-.06.46-.17.98-.17 1.38 0 .29.17.75.17 1.15 0 .98-.17 2.13 0 2.76.63 2.01 1.04 4.43 3.74 6.56-.46-.4 0-.4.23-.4 1.32 1.32 3.17 1.9 4.95 1.9h1.32c1.61 0 5.47-2.42 6.33-2.99 2.48-1.84 4.78-3.91 6.85-5.81.92-.92 1.73-2.07 2.59-3.05.29-.29 2.42-3.22 2.42-3.51.01-.44-.79-1.65-1.48-2.11zM11.23 9.274l.23.06-.12.4-.23-.11.12-.35zm-.18.41l.11.17-.35.34-.12-.17.36-.34zm4.84 28.38l-.17-.17.52-.4.12.12-.47.45zm.69-.69l-.17-.17.81-.57.12.17-.76.57zm35.24-12.38c-.06-.06-.17-.23-.23-.4-.06-.12-.12-.17-.12-.23-.52-.52-1.5-1.5-1.78-1.73-.63-.29-1.09.11-1.38-.52-.63.63-4.55 1.38-4.26 3.57-.12.12-.17.17-.23.17l-.12.06c.29 0 .4.12.4.4 0-.23.06-.4.17-.46.06.06.12.17.12.34.23-.4.58-.11.75-.11-.23.4-.11.86-.35 1.15-.4.52-1.15.81-1.44 1.32-.23.29-.11.63-.35.69-.23.06-.23 0-.46.17-.29.69-.92 1.38-1.32 2.07-.23.23-.11.75-.29.92-.52.81-2.76 5.58-2.76 8.12 0 .29.29 1.61.46 2.3.09 0 .17.03.25.07-1.21.41-1.59.62-1.81.62-.46 0-.52-.17-.92-.17-.23 0-.29.29-.75.29-.4 0-.86-.17-1.38-.46-.23-.23-.58-.63-.63-.92-.06-.69-.12-2.13-.12-2.42 0-1.73.81-6.33 1.27-8.23.23-1.32.75-2.71 1.27-4.03l5.64-18.31c-.23-.4 0-1.15-.23-1.55-.17-.52-.58-1.38-.81-1.9h-.46c0 .06-.06.06-.12.06-.52-.06-.98-.63-1.38-.63-.29 0-.58.12-.75.12.06 1.38-.92 2.13-1.61 4.26-.17.63-.75 1.15-.98 1.67-.98 2.82-1.96 5.47-2.42 7.08-.46 1.61-.86 3.51-1.09 4.84-.06.4-.58.81-.63 1.32-1.09 4.2-2.36 8.18-2.36 12.95 0 2.82 1.55 8.12 5.35 9.56.52.17 1.96.81 2.19.81.4 0 0-.23.46-.23.4 0 .58.29 1.27-.23l.35.34c.63-.17 1.38-.34 1.9-.57.63-.17 1.04-.81 1.44-1.09.04-.04.1-.07.15-.1.58.37 1.24.62 2.1.62 1.09 0 2.25-.4 3.57-1.21.17-.23.23-.69.46-.86 4.2-3.68 7.54-7.95 7.54-12.15 0-2.48-1.21-4.72-2.99-7.2-.18-.18-.41-.12-.58-.18zM49 27.064h.29v.86H49v-.86zm.28 7.43c-.12.29-2.48 4.03-2.99 4.03-.46 0 .23-.35-.17-.35-.29 0-1.55 1.21-2.3 1.73v-.52c0-.46 2.36-5.12 3.63-7.43.52-.86 1.84-2.36 2.48-3.57.29.63.69 1.67.69 2.13-.01.12-.99 3.46-1.34 3.98zm23.55-1.27c-.29-3.11-3.8-5.18-6.74-4.89-.92.17-1.67.35-2.36 1.04l-.23-.23c.63-1.84 1.44-3.68 1.73-5.12 1.55-5.58 3.51-12.9 4.43-17.16l.35-1.96c.17-.92.12-1.67-.17-2.25.17-.23.4-.17.35-.63 0-.06-1.61-2.13-2.01-2.02-.4 0-1.04 0-1.5.23-.69 1.21-.98 2.94-1.38 4.09-2.01 6.91-5.18 17.85-7.48 25.5 0 .23-1.78 5.76-1.61 6.85-.06 0 1.84 3.91 2.65 3.86.4-.06 1.5.11 1.96.06.34-.05.86-.69 1.29-1.12-.1.04-.21 0-.31-.14.46-1.15 2.76-3.51 2.48-4.38.23 0 .23.11.46.06.23-.75.69-1.38 1.78-2.02.52-.29.63-1.15 1.04-1.15l.12.75c-.52 1.44-1.15 3.8-1.9 5.35-.46 1.27-2.3 4.43-3.05 4.61-1.09 0-.17-.81-1.32-1.44-.23.23-.75 1.55-.69 2.02 0 .86 1.67 2.82 1.9 3.05.23.23.46.57.86.57.4-.06-.06-.17.4-.23.4-.06.75.23 1.15.29v.17l-.12.06c.52-.17 1.21-1.04 1.5-1.09.46 0 .06.29.46.29.69-.17 3.34-5.01 3.97-5.93.46-1.09 1.15-2.82 1.44-3.68.26-1.22.61-3.12.55-3.41z"/><path d="M62.29 39.274c-.07.06-.14.13-.21.2a.4.4 0 0 0 .21-.2zm47.45.8c-.52.29-1.61.81-2.02.81-.29 0-.23.12-.29.29-.12-.17-.12-.29 0-.34-1.32.69-2.36 1.67-2.65 1.67-.4 0-.06-.17-.52-.17-.23 0-.52.29-.81.52-1.38.46-1.79.69-2.02.69-.46 0-.52-.17-.92-.17-.23 0-.29.29-.75.29-.4 0-.86-.17-1.38-.46-.23-.23-.58-.63-.63-.92-.05-.58-.1-1.67-.11-2.18.17-.14.33-.28.4-.47l-.4.19c.01-1.75.81-6.31 1.27-8.19.23-1.32.75-2.71 1.27-4.03l5.64-18.31c-.23-.4 0-1.15-.23-1.55-.17-.52-.58-1.38-.81-1.9h-.46c0 .06-.06.06-.12.06-.52-.06-.98-.63-1.38-.63-.29 0-.58.12-.75.12.06 1.38-.92 2.13-1.61 4.26-.17.63-.75 1.15-.98 1.67-.98 2.82-1.96 5.47-2.42 7.08-.46 1.61-.86 3.51-1.09 4.84-.06.4-.58.81-.63 1.32-1.09 4.2-2.36 8.18-2.36 12.95 0 1.11.24 2.6.76 4.08-1.51.65-2.92 1.21-3.3 1.21-.46 0-1.09.29-1.73.06 0-.52-.17-1.5-.17-1.78 0-.35.63-6.1 1.27-9.15.46-2.19 1.67-5.99 1.67-6.39 0-.46-.17 0-.17-.23.23-.23-.06-1.04-.23-1.32-.46-.52-1.84-1.15-2.53-1.15-.29 0 .11.17-.35.17-.4 0-.11-.46-.52-.46-.75 0-.29.4-.98 1.15-.29 0-.63-.11-.92-.11-.29 0-.58-.17-.98-.52h-.46c-.17.35-.4.63-.69.81-.29.23-.69.11-1.21.34-.17.17.06.35-.12.52-.52.46-1.15 1.21-1.67 1.44-.75.52-1.9 1.67-2.3 2.19-1.95 2.55-6.61 10.44-6.61 13.95 0 .29.4 1.27.46 1.73 1.09.92 1.73 2.13 3.63 2.13.29 0 .92-.23 1.21-.23 1.73 0 4.66-4.32 5.3-5.24.69-1.15 1.32-1.96 1.96-3.05.17 1.09.17 2.24.17 2.94 0 .4 2.13 5.18 4.49 5.18h2.42c.49 0 2.24-1.56 3.46-1.89.84 1.4 2 2.59 3.51 3.16.52.17 1.96.81 2.19.81.4 0 0-.23.46-.23.4 0 .58.29 1.27-.23l.35.34c.63-.17 1.38-.34 1.9-.57.63-.17 1.04-.81 1.44-1.09.63-.52 1.61-.98 2.24-1.44.17-.23.35-.98.81-1.21-.86-.06-.17-1.38.46-1.67-.29-.29-.23-.46.17-.58l-.86.35c-.06-.12-.06-.17-.06-.23.5-.19.61-.76 1.02-1.23zm-30.63-2.24l-.35-.4c1.38-2.71 3.17-5.81 5.07-8.12 0 .17-.23.4 0 .63l.35-.35c-1.68 2.77-3.23 5.99-5.07 8.24z"/><path d="M154.18 27.184L154.53 26.724 154.35 26.664 154.01 27.014z"/><path d="M153.55 27.124c.46-.52 1.15-1.21 1.61-1.84-.17-.75.75-1.67 1.38-2.36-.46-.17-.69-.23-.69-.29.06-.23.35-.4.29-.63h-.17c-.06 0-.11 0-.11-.06l.69-.69c-.63-.23-.4-.46-1.09-.06-.23.06-1.5.81-2.19 1.21-.29.29-.35.52-.58.75-1.27.57-3.57 3.34-4.32 3.91-2.13 2.36-4.38 5.47-6.39 8.64-.75-3.22-1.21-5.12-1.21-6.91-.4-1.09-.58-2.25-1.09-2.99-.43-.56-1.61-1.33-2.32-1.65.66-.19 1.37-.66 2.09-.83 0-.23-.29-.29-.23-.52.17-.4.46-.4.46-.81 0-.29-.11-.63-.4-.86l.29-.23-3.86.86c-.23 0 .06-.11-.35-.11-.46 0-9.73 2.19-10.19 2.19H125s-.06-.06-.17-.12l-.4.4c-.17-.17 0-.29-.4-.29-.17 0-.46.11-.81.29l-.23-.23c.86-1.9 1.32-3.8 2.02-5.7.46-1.61.86-3.28 1.55-4.84.17-.29.4-.46.81-.63.63 0 1.44-.23 1.84-.23.06 0 .12 0 .12-.06v-.11c1.38-.23 2.36-.63 3.68-.4l.29-.29c1.55-.23 2.82-.34 3.8-.63.69-.17 1.9-.06 2.59-.29.23 0 .63-.34.92-.34h7.6c.29 0 .86-.46 1.32-.75-.46-.52-.06-1.04-.69-1.5-.92-.69-2.07-.98-2.76-1.21-1.44-.46-4.26-1.04-4.49-1.04-.46 0-6.33-.23-9.56-.06-1.27 0-3.4.46-3.74.46-.29 0-.11 0-.35-.06-.52-.4-1.09-.75-1.27-1.21-.23-.17-.4-.34-.69-.34-1.9 0-.86.06-2.42 2.25-1.78.4-3.4.86-4.84 1.27-.17.06-.06.29-.46.29-.29 0 .06-.17-.23-.17-.12 0-.23.06-.29.17l-.06.06v.4c.23.86.52 1.67.75 2.36.17.63.86 1.15.86 1.44.46.17 1.27.69 1.27 1.09 0 .4-.58 1.32-.75 1.78-.98 2.99-2.02 6.05-2.99 8.81-.17.4-.58.46-.75.4.81 1.61-.52 3.45-1.27 7.94 0 .06-.06.17-.23.35v3.86c0 .29.29 2.71.69 3.68.52 1.55 1.67 3.11 3.8 4.55.92.75 2.07 1.32 2.99 1.32.23.06.12.17.52.17h2.19c.17 0 3.05-1.04 4.09-1.9.46-.29.52-.63.69-.86.06-.23 1.21-1.5 1.61-1.73-.23 0-.46 0-.46-.17.46-.46.63-1.15.86-1.38-.69-.52-.17-.86-.35-1.32-.23 0-.12-.29-.4-.29-.86 0-1.67 1.09-2.53 1.55-1.21.63-2.25 1.09-3.17 1.38-.46.17-1.32.52-1.55.52-.4 0-.75.17-1.15.17-.29 0-.46-.46-.86-.46-.4 0-.17.29-.58.29-.4 0-.46-.12-.75-.17-.86-1.09-.58-1.38-.63-1.84 0-.17-.12-.12-.12-.52s.46-3.8.81-5.53c.17-1.09.69-4.49 1.27-4.49.4 0-.12.11.29.11.29 0 1.96-.11 2.88-.4.92-.4 2.36-1.04 3.11-1.04l7.66-3.05c.12.29.31.54.34.69.46 2.36.58 4.78.63 6.68.29 3.22.69 9.73.69 9.96.17.81 2.36 4.89 4.38 4.61l.75-.11c.29-.06.63-.35.69-.4.29-.92.63-1.96 1.09-2.65.35-1.27 1.55-4.09 2.19-4.61.92-1.5 3.34-5.7 4.72-7.95.75-.92 2.13-3.17 2.99-4.61-.06.13-.23.13-.4-.04zm7.31-5.87c-.06.06-.12.06-.12.12 0 .07.04.12.1.14.04-.09.05-.17.02-.26zm26.77 18.77c-.09 0-.13.04-.12.09l.18-.09h-.06z"/><path d="M216.19 25.164c-.17-.17-.4-.11-.58-.17-.06-.06-.17-.23-.23-.4-.06-.12-.11-.17-.11-.23-.52-.52-1.5-1.5-1.79-1.73-.63-.29-1.09.11-1.38-.52-.63.63-4.55 1.38-4.26 3.57-.12.12-.17.17-.23.17l-.03.01c-3.21.26-5.83.49-8.21.91-.52.06-1.04.34-1.44.34-.46 0-.12-.29-.52-.29-.52 0-.92.06-1.21.17-.52 0-.75.11-1.15-.12v-.27c.46-1.67.92-3.51 1.15-5.07 1.15-3.63 2.36-7.43 3.51-11.34 0-.29-.06-.57-.17-.98.4-.75.69-2.13.69-2.42 0-.52-1.09-2.25-1.09-2.76v-.29s.06 0 .17-.06c-.23 0-.23.06-.63.06s-.81-.92-1.27-.92c-.17 0-.75.17-.98.4-1.15.75-1.21 2.65-1.61 3.8-.52 1.44-.98 3.05-1.27 4.26-.69 2.59-1.55 5.18-2.19 7.71-.63 2.48-1.32 7.89-1.96 9.61-.06.4-.52.86-.81.86-.46 0-.06-.17-.52-.17-.29 0-.46.17-.69.23 0 .06-.12.23-.29.4 0 .86-.29 2.02-.29 2.3 0 .34 1.61 2.24 1.61 2.65.04 2.15-.21 3.96-.23 5.09-.21.14-.39.25-.51.27h-.23l.06-.12c-.01-.01 0-.02 0-.03-1.03.5-2.87 1.93-3.8 1.93-.29.06-.58 0-.75-.12-.06-1.15-.29-2.25-.11-3.17-.17-2.36.29-6.97.11-7.37-.17-1.55.17-.52-1.21-3.22-.06 0-.35-.06-.35-.23.06-.06.12-.11.12-.17v-.03c-.46-.4-1.21-1.15-1.5-1.15-.4.06-.52.23-.81.4-.17-.29-.29-.58-.69-.86-.69.4-1.32.23-1.84.46-1.15.46-2.53 2.82-3.4 3.68-.06-.81.06-1.67.35-2.53.17-.23.35-.4.35-.81.23-1.15.35-2.65.52-3.63.17-.52.52-.92.46-1.32l-.06-.63c-.23.06-.17.12-.35.12h-.06c-.23-.29 0-.69 0-.98-.63-.17-1.04-.52-1.44-.81.06.29.06.75-.17.98-.4-.52-.75-.86-1.04-1.27-.46.17-1.09.81-1.61 1.27 0 .46.06.98.06 1.21-1.55 4.09-3.17 8.69-4.26 11.86-.23.86-.17 1.9-.4 2.76-.17.52-.46 1.27-.75 1.78-.05.94-.36 2.37-.47 3.02-.67.21-1.38.45-2.12.66-.92-.4-1.38.17-2.02.17-.4 0-1.27.06-1.67-.17-.69-.29-1.73-.98-1.73-1.44 0-.52 3.28-3.8 4.95-5.81.98-1.21 2.19-2.94 2.65-3.86.46-1.44 1.09-4.32 1.09-4.66 0-1.5-1.15-.23-1.15-2.65-.23-.23-.4-.52-.69-.52-.4 0 .06.17-.4.17-.4 0-.23-.58-.4-1.09-.52-.17-1.32-.69-1.61-.69-.46 0 .12.17-.35.17-.06 0-.09-.02-.13-.03-.16.47-1.1.75-1.54.95-1.15.69-1.27 1.27-2.13 2.02-.4.75-1.09 1.61-1.5 2.13-.86 1.38-1.44 2.71-1.9 3.63-.86 1.78-1.73 4.03-1.96 5.12-.23.92-.75 2.13-.46 4.43 1.09 4.61.58 3.17 1.61 4.09 1.44 1.55 1.9 1.96 3.57 2.36l.63.86c.17-1.15 1.84 0 2.53 0 .17 0 .23-.06.23-.11v-.17c.63-.06 1.5-.57 2.13-.63-.23 0-.52-.06-.23-.23.86 0 1.55-.12 2.25-.35 0-.81.4-1.89 1.17-1.98.25.89.67 2.03 1.59 1.92.4 0-.12-.17.35-.17.29-.06.58.52.98.52.29-.06 1.55-1.32 2.07-2.02.75-.92 1.32-1.96 1.84-2.94-.06-.23-.06-.34 0-.4 1.61-1.9 3.45-4.55 5.01-6.33.17.06-.06.23.11.29.06 1.67.06 3.91.35 5.07.23 1.79 1.04 3.68 1.9 5.35.17.58 2.88 1.96 3.51 1.96.4 0 1.55.17 2.3.12.17-.29.63-1.09 1.04-1.27.46-.52 1.5-.92 1.78-1.44.05-.36.34-.58.6-.8.22.59.59 1.2 1.3 1.84.23.23.29.92.69.92.29 0 .75-.12.92-.12 0-.52.69-.92.69-1.32 0-.29-.58-2.47-.58-2.88 0-.4.63-4.03 1.09-5.93.46-.29 1.15-.86 1.67-.92l.46-.69c.92-.4 2.42-.92 2.65-.92.46 0 .29.11.46.11 0-.17-.17-.29 0-.34 1.38-.46 2.82-1.04 3.97-1.27 0-.35.06-.52.23-.52.23.17-.12.29.17.29.4 0 1.09-.92 1.32-1.32 1.15-.23 2.53-.52 2.94-1.5-.23-.17-.46-.23-.46-.46.52-.29 1.32-.63 1.96-.92-.63-.52-.06-.4.12-.92-.17 0-.29-.06-.29-.23.15-.15.29-.25.38-.36.2-.08.42.08.55.08-.23.4-.12.86-.35 1.15-.4.52-1.15.81-1.44 1.32-.23.29-.12.63-.35.69-.23.06-.23 0-.46.17-.29.69-.92 1.38-1.32 2.07-.23.23-.12.75-.29.92-.52.81-2.76 5.58-2.76 8.12 0 .29.29 1.61.46 2.3.69 0 .92 1.44 1.32 1.73 1.15.92 2.07 2.02 3.86 2.02 1.09 0 2.25-.4 3.57-1.21.17-.23.23-.69.46-.86 4.2-3.68 7.54-7.95 7.54-12.15.05-2.49-1.16-4.73-2.94-7.21zm-36.33 2.13l-.06-.29.4-.06.06.29-.4.06zm32.93-.23h.29v.86h-.29v-.86zm.29 7.43c-.12.29-2.48 4.03-2.99 4.03-.46 0 .23-.35-.17-.35-.29 0-1.55 1.21-2.3 1.73v-.52c0-.46 2.36-5.12 3.63-7.43.52-.86 1.84-2.36 2.48-3.57.29.63.69 1.67.69 2.13-.02.12-.99 3.46-1.34 3.98z"/></g>
    </symbol>

    <symbol viewBox="0 0 87.86 87.86" fill="none" xmlns="http://www.w3.org/2000/svg" id="plus">
        <g fill="none"><circle cx="43.93" cy="43.93" fill="#fff" r="43.93"/><path d="m64.99 49.33h-15.4v15.05h-11.41v-15.05h-15.32v-10.8h15.31v-15.05h11.42v15.05h15.4z" fill="#d66b30"/></g>
    </symbol>

    <symbol viewBox="0 0 215.5 143.5" fill="none" xmlns="http://www.w3.org/2000/svg" id="qmark">
        <path fill="#FFF" d="M96 107c0 11-3.92 19.84-11.75 26.5-7.84 6.67-18.25 10-31.25 10-16.34 0-29.25-5.64-38.75-16.94S0 99.99 0 80.72c0-30.56 11.83-52.81 35.5-66.77C51.5 4.65 65.66 0 78 0c2.33 0 3.5.83 3.5 2.48 0 2-1.34 3.16-4 3.48-14.34 4.31-24.84 8.3-31.5 11.95-17 9.95-25.5 25.38-25.5 46.27 0 18.25 6.5 31.19 19.5 38.81 0-19 8.33-28.5 25-28.5 9.33 0 16.83 3 22.5 9C93.16 89.5 96 97.34 96 107zm119.5 0c0 11-3.92 19.84-11.75 26.5-7.84 6.67-18.25 10-31.25 10-16.34 0-29.25-5.64-38.75-16.94S119.5 99.99 119.5 80.72c0-30.56 11.83-52.81 35.5-66.77C171 4.65 185.16 0 197.5 0c2.33 0 3.5.83 3.5 2.48 0 2-1.34 3.16-4 3.48-38 9.95-57 29.2-57 57.72 0 18.58 6.5 31.69 19.5 39.31 0-19 8.33-28.5 25-28.5 9 0 16.41 3.09 22.25 9.25 5.83 6.19 8.75 13.94 8.75 23.26z"/>
    </symbol>

    <symbol viewBox="0 0 273.56 252.7" fill="none" xmlns="http://www.w3.org/2000/svg" id="qmess">
        <path d="m142.48 74.08c9.43 0 17.1 7.67 17.1 17.1v108.28c0 9.43-7.67 17.1-17.1 17.1h-65.81l-28.2 32.23c-2.22 2.54-5.32 3.91-8.53 3.91-1.35 0-2.72-.24-4.05-.74-4.49-1.69-7.39-5.88-7.39-10.67v-24.72h-11.4c-9.43 0-17.1-7.67-17.1-17.1v-108.29c0-9.43 7.67-17.1 17.1-17.1zm0 11.4h-125.38c-3.14 0-5.7 2.56-5.7 5.7v108.28c0 3.14 2.56 5.7 5.7 5.7h17.1c3.15 0 5.7 2.55 5.7 5.7v30.42l29.9-34.18c1.08-1.24 2.65-1.95 4.29-1.95h68.39c3.14 0 5.7-2.56 5.7-5.7v-108.27c0-3.14-2.56-5.7-5.7-5.7zm113.98-51.29c9.43 0 17.1 7.67 17.1 17.1v102.58c0 9.43-7.67 17.1-17.1 17.1h-5.7v24.73c0 4.79-2.9 8.98-7.39 10.67-1.33.49-2.7.74-4.05.74-3.21 0-6.31-1.37-8.54-3.91l-28.2-32.23h-31.61v-11.4h34.2c1.64 0 3.21.71 4.29 1.95l29.91 34.18c-.02.01.02 0 .04-.02l-.04-30.4c0-3.15 2.55-5.7 5.7-5.7h11.4c3.14 0 5.7-2.56 5.7-5.7v-102.59c0-3.14-2.56-5.7-5.7-5.7h-125.39c-3.14 0-5.7 2.56-5.7 5.7v11.4h-11.4v-11.4c0-9.43 7.67-17.1 17.1-17.1zm-170.97 142.48v11.4h-11.4v-11.4zm-5.71-68.39c6.32 0 12.11 2.31 16.3 6.5s6.5 9.98 6.5 16.3c0 7.82-5.31 15.56-10.58 19.77-5.3 4.23-6.51 6.93-6.51 14.42h-11.4c0-10.85 2.83-16.96 10.8-23.33 3.05-2.44 6.29-7.08 6.29-10.86 0-3.33-1.09-6.17-3.16-8.24s-4.92-3.16-8.24-3.16c-7.03 0-11.4 4.37-11.4 11.4h-11.4c0-13.21 9.59-22.79 22.8-22.8zm125.39 22.8v11.4h-11.4v-11.4zm-5.72-68.39c6.32 0 12.11 2.31 16.3 6.5s6.5 9.98 6.5 16.3c0 7.82-5.31 15.56-10.58 19.77-5.29 4.23-6.51 6.92-6.51 14.42h-11.4c0-10.85 2.83-16.96 10.8-23.33 3.05-2.44 6.29-7.08 6.29-10.86 0-3.32-1.09-6.17-3.16-8.24s-4.92-3.16-8.24-3.16c-7.03 0-11.4 4.37-11.4 11.4h-11.4c0-13.21 9.59-22.8 22.8-22.8zm-28.48-62.69c9.43 0 17.1 7.67 17.1 17.1v5.7h-11.4v-5.7c0-3.14-2.56-5.7-5.7-5.7h-119.68c-3.14 0-5.7 2.56-5.7 5.7v45.59h-11.4v-45.59c0-9.43 7.67-17.1 17.1-17.1z" fill="#fff"/>
    </symbol>

    <symbol viewBox="0 0 10.063 8.813" fill="none" xmlns="http://www.w3.org/2000/svg" id="submenu">
        <path fill="currentColor" fill-rule="evenodd" d="M2.874 0L5.031 3.779 7.189 0 10.063 0 5.031 8.813 0 0z"/>
    </symbol>

    <symbol viewBox="0 0 141.64 141.64" fill="none" xmlns="http://www.w3.org/2000/svg" id="s-fb">
        <path fill="#FFF" d="M70.82 141.64C31.71 141.64 0 109.94 0 70.82 0 31.71 31.71 0 70.82 0c39.11 0 70.82 31.71 70.82 70.82 0 39.12-31.71 70.82-70.82 70.82M53.74 69.43h7.32v36.8h13.72v-36.8h10.86l.82-10.59H74.78v-8.27c0-2.85 2.55-3.87 5.4-3.87 2.85 0 5.9.88 5.9.88l1.83-10.85s-3.89-1.32-13.13-1.32c-5.67 0-8.96 2.16-11.36 5.33-2.28 3-2.36 7.84-2.36 10.97v7.12h-7.32v10.6z"/>
    </symbol>

    <symbol viewBox="0 0 141.36 141.36" fill="none" xmlns="http://www.w3.org/2000/svg" id="s-in">
        <path fill="#FFF" d="M70.68 0c39.04 0 70.68 31.65 70.68 70.68 0 39.03-31.64 70.68-70.68 70.68C31.64 141.36 0 109.71 0 70.68 0 31.64 31.64 0 70.68 0zm21.69 35.34H49.01c-7.53 0-13.66 6.13-13.66 13.66v43.36c0 7.53 6.13 13.66 13.66 13.66h43.36c7.53 0 13.66-6.13 13.66-13.66V49c0-7.53-6.13-13.66-13.66-13.66zm-39.6 28.09c-.91 2.24-1.42 4.69-1.42 7.25 0 10.66 8.67 19.33 19.33 19.33 10.66 0 19.33-8.68 19.33-19.33 0-2.56-.51-5.01-1.42-7.25h10.55v28.93c0 3.73-3.03 6.77-6.77 6.77H49.01c-3.73 0-6.77-3.03-6.77-6.77V63.43h10.53zm17.92-5.19c4.15 0 7.82 2.06 10.08 5.19a12.3 12.3 0 0 1 2.36 7.25c0 6.86-5.58 12.44-12.44 12.44-6.86 0-12.44-5.58-12.44-12.44 0-2.71.88-5.21 2.35-7.25 2.27-3.14 5.94-5.19 10.09-5.19zm27.16-14.76v11.98l-11.94.04-.04-11.98 10.42-.03 1.56-.01z"/>
    </symbol>

    <symbol viewBox="0 0 141.36 141.36" fill="none" xmlns="http://www.w3.org/2000/svg" id="s-ln">
        <path fill="#FFF" d="M70.68 141.36C31.64 141.36 0 109.71 0 70.68 0 31.65 31.64 0 70.68 0c39.04 0 70.68 31.64 70.68 70.68 0 39.03-31.64 70.68-70.68 70.68M43.75 35.34c-5.08 0-8.41 3.3-8.41 7.66 0 4.27 3.23 7.64 8.22 7.64h.1c5.18 0 8.4-3.38 8.4-7.65-.1-4.36-3.22-7.65-8.31-7.65zm-6.63 64.9H50.9V56.15H37.12v44.09zm51.42-44.51c-7.9 0-12.84 4.32-13.75 7.34v-6.92H59.31c.2 3.67 0 44.09 0 44.09h15.48V76.38c0-1.33-.06-2.65.34-3.6 1.07-2.65 3.35-5.4 7.46-5.4 5.38 0 7.82 4.07 7.82 10.05v22.82h15.62V75.72c-.01-13.65-7.7-19.99-17.49-19.99z"/>
    </symbol>

    <symbol viewBox="0 0 20 20" fill="none" xmlns="http://www.w3.org/2000/svg" id="select-down">
        <path fill="#FF6C00" d="M2 4L10.514 17.015 18.015 4 13.003 4 10.514 9.536 7.001 4z"/>
    </symbol>

    <symbol viewBox="0 0 73 73" fill="none" xmlns="http://www.w3.org/2000/svg" id="gifting">
        <path d="m45.81 31.42 13.84 6.29c.49.23.81.72.81 1.26v1.38l-.03.01c0 .49-.25.94-.67 1.19l-4.94 2.96 4.94 2.96c.42.25.67.7.67 1.19v1.38c0 .54-.32 1.04-.81 1.26l-15.21 6.92a1.386 1.386 0 0 1 -1.28-.08l-4.82-2.89v10.62l12.45-5.66v-3.26h2.77v4.15c0 .54-.32 1.04-.81 1.26l-15.21 6.91a1.423 1.423 0 0 1 -1.14 0l-15.21-6.91c-.49-.23-.81-.72-.81-1.26v-4.15h2.77v3.26l12.45 5.66v-10.62l-4.82 2.89a1.386 1.386 0 0 1 -1.28.08l-15.21-6.92c-.49-.23-.81-.72-.81-1.26v-1.38c0-.49.25-.94.67-1.19l4.94-2.96-4.94-2.96c-.42-.25-.67-.7-.67-1.19v-1.38c0-.54.32-1.04.81-1.26l13.83-6.29 1.14 2.52-12.74 5.79 5.35 3.21 7.64-3.47 1.14 2.52-5.53 2.51 11.87 5.4 11.87-5.4-5.53-2.51 1.15-2.52 7.63 3.47 5.34-3.21-12.75-5.8zm-23.99 14.64-5.35 3.21 13.47 6.12 5.35-3.21zm30.25 0-13.47 6.12 5.35 3.21 13.47-6.12zm-15.13-31.98c5.25 0 9.68 4.43 9.68 9.68 0 3.25-1.71 5.32-3 6.6-.75.75-1.15 1.73-1.15 2.85v5.76c0 .37-.14.72-.4.98l-1.38 1.38c-.26.25-.61.4-.98.4h-5.53c-.37 0-.72-.14-.98-.4l-1.38-1.38c-.25-.26-.4-.61-.4-.98h-.01v-5.76c0-1.12-.4-2.1-1.15-2.85-1.29-1.28-3-3.35-3-6.6 0-5.25 4.43-9.68 9.68-9.68zm2.77 22.12h-5.53v2.19l.57.57h4.39l.57-.57zm-2.76-19.37c-3.75 0-6.92 3.17-6.92 6.92.01 1.74.66 3.13 2.19 4.64 1.29 1.27 1.97 2.94 1.97 4.81v.23h5.53v-.23c0-1.87.68-3.53 1.97-4.81 1.53-1.52 2.18-2.9 2.18-4.64 0-3.75-3.17-6.92-6.92-6.92zm-12.45 5.54v2.77h-8.3v-2.77zm33.2 0v2.77h-8.3v-2.77zm-3.483-10.187 1.385 2.4-7.188 4.15-1.385-2.4zm-34.539-.002 7.188 4.15-1.385 2.4-7.188-4.15zm26.454-7.08 2.399 1.386-4.152 7.188-2.398-1.386 4.151-7.187zm-18.358-.008 4.15 7.188-2.399 1.385-4.15-7.188zm10.566-2.083v8.3h-2.77v-8.3z" fill="currentColor"/>
    </symbol>

    <symbol viewBox="0 0 73 73" fill="none" xmlns="http://www.w3.org/2000/svg" id="event-objective">
        <path fill="currentColor" d="M57.1 6.01a4.2 4.2 0 0 1 4.2 4.2v53.21a4.2 4.2 0 0 1-4.2 4.2H16.49a4.2 4.2 0 0 1-4.2-4.2V18.03L24.31 6.01zm0 2.8H25.47L15.09 19.19v44.24c0 .77.63 1.4 1.4 1.4H57.1c.77 0 1.4-.63 1.4-1.4V10.21c0-.77-.63-1.4-1.4-1.4zM45.89 25.03l6.59 6.59-1.98 1.98-3.21-3.21v3.85h-.01c0 3.81-2.23 7.3-5.69 8.9l-8.44 3.9a7.031 7.031 0 0 0-4.07 6.36v7.23h-2.8V53.4c0-3.81 2.24-7.3 5.7-8.9l8.44-3.9a7.031 7.031 0 0 0 4.07-6.36v-3.85l-3.21 3.21-1.98-1.98 6.59-6.59zm0 21.59c3.86 0 7 3.14 7 7s-3.14 7-7 7-7-3.14-7-7 3.14-7 7-7zm0 2.81a4.2 4.2 0 1 0-.001 8.399 4.2 4.2 0 0 0 .001-8.399zM32.3 26.03l1.98 1.98-4.61 4.61 4.61 4.61-1.98 1.98-4.61-4.61-4.61 4.61-1.98-1.98 4.61-4.61-4.61-4.61 1.98-1.98 4.61 4.61 4.61-4.61zm-4.61-14.42v9.8h-9.8v-2.8h7v-7h2.8z"/>
    </symbol>

    <symbol viewBox="0 0 73 73" fill="none" xmlns="http://www.w3.org/2000/svg" id="event-solution">
        <path fill="currentColor" d="M38.67 13.8c13.12 0 23.79 10.67 23.79 23.79h-.02c0 6.48-2.61 12.37-6.83 16.66l6.62 10.59-2.37 1.48-6.35-10.16a23.695 23.695 0 0 1-14.85 5.22c-5.61 0-10.78-1.95-14.85-5.22l-6.35 10.16-2.37-1.48 6.62-10.59c-4.22-4.3-6.83-10.18-6.83-16.66 0-5.01 1.54-9.81 4.46-13.87l2.27 1.63a20.859 20.859 0 0 0-3.93 12.24c0 11.57 9.42 20.99 20.99 20.99 11.57 0 20.99-9.42 20.99-20.99 0-11.57-9.42-20.99-20.99-20.99-4.43 0-8.66 1.36-12.24 3.93l-1.63-2.27c4.06-2.92 8.85-4.46 13.87-4.46zm0 8.41c8.48 0 15.39 6.91 15.39 15.39s-6.91 15.39-15.39 15.39-15.39-6.9-15.39-15.39c0-2.71.71-5.37 2.06-7.7l2.42 1.4c-1.1 1.91-1.68 4.09-1.68 6.3 0 6.94 5.65 12.59 12.59 12.59 6.94 0 12.59-5.65 12.59-12.59 0-6.94-5.65-12.59-12.59-12.59-2.22 0-4.39.58-6.3 1.68l-1.4-2.42c2.33-1.35 4.99-2.06 7.7-2.06zm0 8.38c3.86 0 7 3.14 7 7s-3.14 7-7 7a7.008 7.008 0 0 1-6.78-8.75l2.71.7c-.09.34-.13.69-.13 1.05a4.2 4.2 0 1 0 4.2-4.2c-.35 0-.71.04-1.05.13l-.7-2.71c.57-.15 1.16-.22 1.75-.22zM13.11 4.05c.48-.13 1 0 1.36.36l7 7c.26.26.41.62.41.99v6.42L39.66 36.6a1.401 1.401 0 1 1-1.98 1.98l.01-.01-17.78-17.78h-6.42c-.37 0-.73-.15-.99-.41l-7-7a1.39 1.39 0 0 1 .65-2.34l3.2-.8L6.9 7.79c-.55-.55-.55-1.43 0-1.98s1.43-.55 1.98 0l2.45 2.45.8-3.2c.12-.49.49-.88.98-1.01zm1.13 4.09l-.8 3.2-.05.12a1.405 1.405 0 0 1-.85.85c-.04.02-.12.05-.12.05l-3.2.8L14.06 18h5.02v-5.02l-4.84-4.84z"/>
    </symbol>

    <symbol viewBox="0 0 128 128" fill="none" xmlns="http://www.w3.org/2000/svg" id="gift-box">
        <g fill="none" transform="translate(2.053 4.03)">
            <path fill="#FFF" d="M37.107 69.53H118.157V118.16H37.107z"/>
            <path fill="#FFF" d="M3.087 51.21L77.127 3.36 83.317 12.02 10.097 62.14z"/>
            <path fill="currentColor" d="M117.407 67.44h-79.93a2.5 2.5 0 0 0-2.5 2.5v47.46a2.5 2.5 0 0 0 2.5 2.5h79.93a2.5 2.5 0 0 0 2.5-2.5V69.94a2.5 2.5 0 0 0-2.5-2.5zm-77.44 5h29.98v42.46h-29.98V72.44zm34.97 42.46V72.44h5v42.46h-5zm39.97 0h-29.98V72.44h29.98v42.46zm-69.94-69.94c9.678 7.256 9.98 19.204 9.99 19.944v.036c-2.5-9.99-12.49-14.98-12.49-14.98l2.5-5zm34.82-43.87l6.99 10.26c.38.55.52 1.23.39 1.89-.13.65-.52 1.23-1.08 1.6l-33.43 21.98-4.18 2.75-37.61 24.72c-.42.28-.9.41-1.37.41-.8 0-1.59-.38-2.07-1.09L.437 53.35c-.38-.55-.52-1.23-.39-1.89.13-.65.52-1.23 1.08-1.6l16.34-10.74c-2.09-.74-3.92-2.06-5.2-3.94-1.56-2.29-2.11-5.12-1.55-7.95.64-3.27 2.72-6.26 5.7-8.22 6.68-4.39 14.12-1.56 19.23 1.62-1.04-5.87-.85-13.7 5.84-18.1 5.74-3.78 13.23-2.72 16.69 2.36 1.26 1.86 1.82 4.06 1.71 6.34L76.347.41c1.14-.75 2.67-.44 3.44.68zm-37.32 56.36a2.5 2.5 0 1 1 0 5 2.5 2.5 0 0 1 0-5zm27.48-2.5a2.5 2.5 0 1 1 0 5 2.5 2.5 0 0 1 0-5zM35.257 33.4L5.997 52.63l4.18 6.13 29.26-19.23-4.18-6.13zm57.17 19.05a2.5 2.5 0 1 1 0 5 2.5 2.5 0 0 1 0-5zm-2.5-34.98l2.5 5s-.15.1-.42.3l-.175.132c-2.786 2.112-14.395 11.965-14.395 29.548 0 0-4.99-22.48 12.49-34.98zm-24.98 22.49a2.5 2.5 0 1 1 0 5 2.5 2.5 0 0 1 0-5zM43.607 27.9l-2.09 1.37-2.09 1.38 4.18 6.13 2.09-1.37 2.09-1.38-4.18-6.13zm-19.61-6.12c-1.66 0-3.31.4-4.84 1.41-1.87 1.23-3.16 3.06-3.55 5.02-.21 1.07-.24 2.66.78 4.16 1.94 2.84 6.34 3.29 9.82 1l9.77-6.42c-2.73-2.13-7.42-5.17-11.98-5.17zm53.05-15.85l-23.03 15.13-2.18 1.44-4.05 2.66 4.18 6.13 29.26-19.23-4.18-6.13zm-28.1-.69c-1.56 0-3.23.48-4.72 1.46-5.69 3.75-4.13 12.22-2.81 16.66l8.76-5.76 1.1-.72c1.87-1.23 3.16-3.06 3.55-5.02.21-1.07.25-2.66-.78-4.16-1.11-1.62-3.02-2.46-5.1-2.46zm68.46 39.72l-2.5-5c-13.74 13.74-14.99 24.98-14.99 24.98 5-12.49 17.49-19.98 17.49-19.98zm-14.99-7.49a2.5 2.5 0 1 0 0-5 2.5 2.5 0 0 0 0 5z"/>
        </g>
    </symbol>

</svg>